M48
;DRILL file {KiCad (5.0.0)} date 08/26/19 00:29:36
;FORMAT={-:-/ absolute / inch / decimal}
FMAT,2
INCH,TZ
T1C0.0157
T2C0.0236
T3C0.0276
T4C0.0315
T5C0.0400
T6C0.0433
T7C0.0591
T8C0.0866
%
G90
G05
M72
T1
X4.2553Y-0.7461
X4.606Y-1.0533
X4.6913Y-1.2007
X4.7698Y-1.0912
X4.9043Y-0.6427
X5.0106Y-0.9792
X5.0241Y-1.4536
X5.0532Y-1.0036
X5.3018Y-1.4515
X5.3252Y-1.0044
X5.3546Y-0.8956
X5.441Y-0.6572
X5.7385Y-1.001
X5.7833Y-0.868
X5.8322Y-0.6572
X5.8322Y-0.9762
X6.0341Y-1.0278
X6.0575Y-1.4212
X6.0692Y-1.6038
X6.0738Y-1.2443
X6.15Y-1.4581
X6.1676Y-0.9205
X6.1778Y-1.2443
X6.2789Y-0.9205
X6.2892Y-1.2443
X6.3902Y-0.9205
X6.402Y-1.2443
X6.5133Y-0.9205
X6.5177Y-1.2443
X6.6933Y-2.509
X6.7236Y-0.6572
X6.8635Y-1.156
X7.0626Y-0.8501
X7.0929Y-1.2421
X4.8985Y-0.881
X4.8987Y-0.9332
X4.932Y-0.881
X4.9322Y-0.9332
X4.9655Y-0.881
X4.9657Y-0.9332
X4.9989Y-0.881
X4.9991Y-0.9332
X5.0324Y-0.881
X5.0326Y-0.9332
X5.0659Y-0.881
X5.0661Y-0.9332
X5.0993Y-0.881
X5.0995Y-0.9332
X5.133Y-0.881
X5.133Y-0.9332
T2
X4.71Y-0.7158
X4.71Y-0.7748
T3
X5.8219Y-1.266
X5.8219Y-1.466
X4.9676Y-1.0568
X5.1676Y-1.0568
X5.5789Y-1.054
X5.7789Y-1.054
X4.5557Y-0.6539
X4.5557Y-0.8547
X5.5789Y-0.9507
X5.7789Y-0.9507
X5.5789Y-1.1608
X5.7789Y-1.1608
X5.2728Y-0.9527
X5.4728Y-0.9527
T4
X5.2746Y-1.1629
X5.4746Y-1.1629
X4.6149Y-0.961
X4.7134Y-0.961
X5.2746Y-1.0568
X5.4746Y-1.0568
X6.7654Y-0.7767
X6.7654Y-0.9767
X6.6531Y-1.3153
X6.6531Y-1.5153
X6.3159Y-0.7767
X6.3159Y-0.9767
X6.6531Y-0.7767
X6.6531Y-0.9767
X6.8778Y-0.7767
X6.8778Y-0.9767
X6.3159Y-1.3153
X6.3159Y-1.5153
X6.7654Y-1.3153
X6.7654Y-1.5153
X6.0912Y-0.7767
X6.0912Y-0.9767
X4.3077Y-1.3744
X4.3077Y-1.5712
X4.4151Y-1.2717
X4.4151Y-1.5717
X4.5151Y-1.2717
X4.5151Y-1.5717
X4.6151Y-1.2717
X4.6151Y-1.5717
X4.7151Y-1.2717
X4.7151Y-1.5717
X4.8151Y-1.2717
X4.8151Y-1.5717
X4.9151Y-1.2717
X4.9151Y-1.5717
X5.0151Y-1.2717
X5.0151Y-1.5717
X5.1151Y-1.2717
X5.1151Y-1.5717
X5.2151Y-1.2717
X5.2151Y-1.5717
X5.3151Y-1.2717
X5.3151Y-1.5717
X5.4151Y-1.2717
X5.4151Y-1.5717
X5.5151Y-1.2717
X5.5151Y-1.5717
X5.6151Y-1.2717
X5.6151Y-1.5717
X5.7151Y-1.2717
X5.7151Y-1.5717
X6.0912Y-1.3153
X6.0912Y-1.5153
X6.2036Y-0.7767
X6.2036Y-0.9767
X6.4283Y-1.3153
X6.4283Y-1.5153
X4.9719Y-1.1642
X5.1688Y-1.1642
X6.5407Y-0.7767
X6.5407Y-0.9767
X6.4283Y-0.7767
X6.4283Y-0.9767
X4.5172Y-1.1133
X4.7093Y-1.1133
X6.8778Y-1.3153
X6.8778Y-1.5153
X6.5407Y-1.3153
X6.5407Y-1.5153
X6.2036Y-1.3153
X6.2036Y-1.5153
X6.9902Y-0.7767
X6.9902Y-0.9767
X4.4159Y-0.9603
X4.5143Y-0.9603
T5
X6.9795Y-1.3143
X6.9795Y-1.4143
X6.9795Y-1.5143
X7.0795Y-1.3143
X7.0795Y-1.4143
X7.0795Y-1.5143
T6
X5.3135Y-0.6572
X5.3135Y-0.8344
X5.5694Y-0.6572
X5.5694Y-0.8344
X5.7075Y-0.6572
X5.7075Y-0.8344
X5.9634Y-0.6572
X5.9634Y-0.8344
T7
X5.885Y-2.705
X6.135Y-2.605
X6.59Y-4.58
X6.69Y-4.83
X4.385Y-2.705
X4.635Y-2.605
X6.635Y-1.955
X6.885Y-1.855
X5.885Y-4.205
X6.135Y-4.105
X4.385Y-4.205
X4.635Y-4.105
X5.135Y-2.705
X5.385Y-2.605
X4.385Y-3.455
X4.635Y-3.355
X5.135Y-4.205
X5.385Y-4.105
X6.59Y-3.08
X6.69Y-3.33
X4.385Y-1.955
X4.635Y-1.855
X4.762Y-4.952
X5.012Y-4.852
X5.135Y-3.455
X5.385Y-3.355
X5.885Y-1.955
X6.135Y-1.855
X5.885Y-4.955
X6.135Y-4.855
X5.135Y-1.955
X5.385Y-1.855
X5.885Y-3.455
X6.135Y-3.355
T8
X7.0473Y-1.1211
X4.2718Y-1.1211
X4.5572Y-3.9199
X5.6627Y-2.4325
X5.6627Y-4.6727
X6.7683Y-3.9308
T2
X4.8456Y-0.7773G85X4.8456Y-0.7458
G05
X4.8456Y-0.9241G85X4.8456Y-0.8651
G05
X5.1861Y-0.7773G85X5.1861Y-0.7458
G05
X5.1861Y-0.9241G85X5.1861Y-0.8651
G05
T0
M30
