G04 #@! TF.GenerationSoftware,KiCad,Pcbnew,(5.0.0)*
G04 #@! TF.CreationDate,2019-08-26T00:29:33-04:00*
G04 #@! TF.ProjectId,discipad-pcb,64697363697061642D7063622E6B6963,rev?*
G04 #@! TF.SameCoordinates,Original*
G04 #@! TF.FileFunction,Legend,Top*
G04 #@! TF.FilePolarity,Positive*
%FSLAX46Y46*%
G04 Gerber Fmt 4.6, Leading zero omitted, Abs format (unit mm)*
G04 Created by KiCad (PCBNEW (5.0.0)) date 08/26/19 00:29:33*
%MOMM*%
%LPD*%
G01*
G04 APERTURE LIST*
%ADD10C,0.150000*%
%ADD11C,0.120000*%
%ADD12C,0.100000*%
%ADD13C,0.075000*%
%ADD14C,0.203200*%
%ADD15C,0.200000*%
G04 APERTURE END LIST*
D10*
X177500009Y-41396920D02*
X177500009Y-40396920D01*
X177928580Y-41349301D02*
X178071438Y-41396920D01*
X178309533Y-41396920D01*
X178404771Y-41349301D01*
X178452390Y-41301682D01*
X178500009Y-41206444D01*
X178500009Y-41111206D01*
X178452390Y-41015968D01*
X178404771Y-40968349D01*
X178309533Y-40920730D01*
X178119057Y-40873111D01*
X178023819Y-40825492D01*
X177976200Y-40777873D01*
X177928580Y-40682635D01*
X177928580Y-40587397D01*
X177976200Y-40492159D01*
X178023819Y-40444540D01*
X178119057Y-40396920D01*
X178357152Y-40396920D01*
X178500009Y-40444540D01*
X178928580Y-41396920D02*
X178928580Y-40396920D01*
X179309533Y-40396920D01*
X179404771Y-40444540D01*
X179452390Y-40492159D01*
X179500009Y-40587397D01*
X179500009Y-40730254D01*
X179452390Y-40825492D01*
X179404771Y-40873111D01*
X179309533Y-40920730D01*
X178928580Y-40920730D01*
G36*
X177058889Y-31968237D02*
X176533959Y-31180842D01*
X177531326Y-31180842D01*
X177058889Y-31968237D01*
G37*
X177058889Y-31968237D02*
X176533959Y-31180842D01*
X177531326Y-31180842D01*
X177058889Y-31968237D01*
X175008356Y-29995940D02*
X174922642Y-29953082D01*
X174794071Y-29953082D01*
X174665499Y-29995940D01*
X174579785Y-30081654D01*
X174536928Y-30167368D01*
X174494071Y-30338797D01*
X174494071Y-30467368D01*
X174536928Y-30638797D01*
X174579785Y-30724511D01*
X174665499Y-30810225D01*
X174794071Y-30853082D01*
X174879785Y-30853082D01*
X175008356Y-30810225D01*
X175051213Y-30767368D01*
X175051213Y-30467368D01*
X174879785Y-30467368D01*
X175436928Y-30853082D02*
X175436928Y-29953082D01*
X175951213Y-30853082D01*
X175951213Y-29953082D01*
X176379785Y-30853082D02*
X176379785Y-29953082D01*
X176594071Y-29953082D01*
X176722642Y-29995940D01*
X176808356Y-30081654D01*
X176851213Y-30167368D01*
X176894071Y-30338797D01*
X176894071Y-30467368D01*
X176851213Y-30638797D01*
X176808356Y-30724511D01*
X176722642Y-30810225D01*
X176594071Y-30853082D01*
X176379785Y-30853082D01*
D11*
X136064831Y-26291931D02*
X135802366Y-26029466D01*
X136324321Y-30340954D02*
X136061856Y-30078489D01*
X136061856Y-28976136D02*
X135799391Y-28713671D01*
X136324321Y-27663811D02*
X136061856Y-27401346D01*
D10*
X111793661Y-34585231D02*
X112269852Y-34585231D01*
X111698423Y-34870945D02*
X112031757Y-33870945D01*
X112365090Y-34870945D01*
X112555566Y-33870945D02*
X113126995Y-33870945D01*
X112841280Y-34870945D02*
X112841280Y-33870945D01*
X113460328Y-34870945D02*
X113460328Y-33870945D01*
X113793661Y-34585231D01*
X114126995Y-33870945D01*
X114126995Y-34870945D01*
X114603185Y-34347136D02*
X114936519Y-34347136D01*
X115079376Y-34870945D02*
X114603185Y-34870945D01*
X114603185Y-33870945D01*
X115079376Y-33870945D01*
X116031757Y-33918565D02*
X115936519Y-33870945D01*
X115793661Y-33870945D01*
X115650804Y-33918565D01*
X115555566Y-34013803D01*
X115507947Y-34109041D01*
X115460328Y-34299517D01*
X115460328Y-34442374D01*
X115507947Y-34632850D01*
X115555566Y-34728088D01*
X115650804Y-34823326D01*
X115793661Y-34870945D01*
X115888899Y-34870945D01*
X116031757Y-34823326D01*
X116079376Y-34775707D01*
X116079376Y-34442374D01*
X115888899Y-34442374D01*
X116460328Y-34585231D02*
X116936519Y-34585231D01*
X116365090Y-34870945D02*
X116698423Y-33870945D01*
X117031757Y-34870945D01*
X117269852Y-33870945D02*
X117888899Y-33870945D01*
X117555566Y-34251898D01*
X117698423Y-34251898D01*
X117793661Y-34299517D01*
X117841280Y-34347136D01*
X117888899Y-34442374D01*
X117888899Y-34680469D01*
X117841280Y-34775707D01*
X117793661Y-34823326D01*
X117698423Y-34870945D01*
X117412709Y-34870945D01*
X117317471Y-34823326D01*
X117269852Y-34775707D01*
X118269852Y-33966184D02*
X118317471Y-33918565D01*
X118412709Y-33870945D01*
X118650804Y-33870945D01*
X118746042Y-33918565D01*
X118793661Y-33966184D01*
X118841280Y-34061422D01*
X118841280Y-34156660D01*
X118793661Y-34299517D01*
X118222233Y-34870945D01*
X118841280Y-34870945D01*
X119412709Y-34299517D02*
X119317471Y-34251898D01*
X119269852Y-34204279D01*
X119222233Y-34109041D01*
X119222233Y-34061422D01*
X119269852Y-33966184D01*
X119317471Y-33918565D01*
X119412709Y-33870945D01*
X119603185Y-33870945D01*
X119698423Y-33918565D01*
X119746042Y-33966184D01*
X119793661Y-34061422D01*
X119793661Y-34109041D01*
X119746042Y-34204279D01*
X119698423Y-34251898D01*
X119603185Y-34299517D01*
X119412709Y-34299517D01*
X119317471Y-34347136D01*
X119269852Y-34394755D01*
X119222233Y-34489993D01*
X119222233Y-34680469D01*
X119269852Y-34775707D01*
X119317471Y-34823326D01*
X119412709Y-34870945D01*
X119603185Y-34870945D01*
X119698423Y-34823326D01*
X119746042Y-34775707D01*
X119793661Y-34680469D01*
X119793661Y-34489993D01*
X119746042Y-34394755D01*
X119698423Y-34347136D01*
X119603185Y-34299517D01*
X120222233Y-34870945D02*
X120222233Y-33870945D01*
X120603185Y-33870945D01*
X120698423Y-33918565D01*
X120746042Y-33966184D01*
X120793661Y-34061422D01*
X120793661Y-34204279D01*
X120746042Y-34299517D01*
X120698423Y-34347136D01*
X120603185Y-34394755D01*
X120222233Y-34394755D01*
X121222233Y-34489993D02*
X121984138Y-34489993D01*
X122460328Y-34870945D02*
X122460328Y-33870945D01*
X122841280Y-33870945D01*
X122936519Y-33918565D01*
X122984138Y-33966184D01*
X123031757Y-34061422D01*
X123031757Y-34204279D01*
X122984138Y-34299517D01*
X122936519Y-34347136D01*
X122841280Y-34394755D01*
X122460328Y-34394755D01*
X123460328Y-33870945D02*
X123460328Y-34680469D01*
X123507947Y-34775707D01*
X123555566Y-34823326D01*
X123650804Y-34870945D01*
X123841280Y-34870945D01*
X123936519Y-34823326D01*
X123984138Y-34775707D01*
X124031757Y-34680469D01*
X124031757Y-33870945D01*
D12*
X147122344Y-22725252D02*
X147236630Y-22763347D01*
X147274725Y-22801442D01*
X147312820Y-22877633D01*
X147312820Y-22991918D01*
X147274725Y-23068109D01*
X147236630Y-23106204D01*
X147160439Y-23144299D01*
X146855678Y-23144299D01*
X146855678Y-22344299D01*
X147122344Y-22344299D01*
X147198535Y-22382395D01*
X147236630Y-22420490D01*
X147274725Y-22496680D01*
X147274725Y-22572871D01*
X147236630Y-22649061D01*
X147198535Y-22687156D01*
X147122344Y-22725252D01*
X146855678Y-22725252D01*
X147808059Y-22344299D02*
X147960439Y-22344299D01*
X148036630Y-22382395D01*
X148112820Y-22458585D01*
X148150916Y-22610966D01*
X148150916Y-22877633D01*
X148112820Y-23030014D01*
X148036630Y-23106204D01*
X147960439Y-23144299D01*
X147808059Y-23144299D01*
X147731868Y-23106204D01*
X147655678Y-23030014D01*
X147617582Y-22877633D01*
X147617582Y-22610966D01*
X147655678Y-22458585D01*
X147731868Y-22382395D01*
X147808059Y-22344299D01*
X148646154Y-22344299D02*
X148798535Y-22344299D01*
X148874725Y-22382395D01*
X148950916Y-22458585D01*
X148989011Y-22610966D01*
X148989011Y-22877633D01*
X148950916Y-23030014D01*
X148874725Y-23106204D01*
X148798535Y-23144299D01*
X148646154Y-23144299D01*
X148569963Y-23106204D01*
X148493773Y-23030014D01*
X148455678Y-22877633D01*
X148455678Y-22610966D01*
X148493773Y-22458585D01*
X148569963Y-22382395D01*
X148646154Y-22344299D01*
X149217582Y-22344299D02*
X149674725Y-22344299D01*
X149446154Y-23144299D02*
X149446154Y-22344299D01*
X137002302Y-23126801D02*
X136735635Y-22745849D01*
X136545159Y-23126801D02*
X136545159Y-22326801D01*
X136849921Y-22326801D01*
X136926111Y-22364897D01*
X136964207Y-22402992D01*
X137002302Y-22479182D01*
X137002302Y-22593468D01*
X136964207Y-22669658D01*
X136926111Y-22707754D01*
X136849921Y-22745849D01*
X136545159Y-22745849D01*
X137345159Y-22707754D02*
X137611826Y-22707754D01*
X137726111Y-23126801D02*
X137345159Y-23126801D01*
X137345159Y-22326801D01*
X137726111Y-22326801D01*
X138030873Y-23088706D02*
X138145159Y-23126801D01*
X138335635Y-23126801D01*
X138411826Y-23088706D01*
X138449921Y-23050611D01*
X138488016Y-22974420D01*
X138488016Y-22898230D01*
X138449921Y-22822039D01*
X138411826Y-22783944D01*
X138335635Y-22745849D01*
X138183254Y-22707754D01*
X138107064Y-22669658D01*
X138068968Y-22631563D01*
X138030873Y-22555373D01*
X138030873Y-22479182D01*
X138068968Y-22402992D01*
X138107064Y-22364897D01*
X138183254Y-22326801D01*
X138373730Y-22326801D01*
X138488016Y-22364897D01*
X138830873Y-22707754D02*
X139097540Y-22707754D01*
X139211826Y-23126801D02*
X138830873Y-23126801D01*
X138830873Y-22326801D01*
X139211826Y-22326801D01*
X139440397Y-22326801D02*
X139897540Y-22326801D01*
X139668968Y-23126801D02*
X139668968Y-22326801D01*
D13*
X139139457Y-84640781D02*
X139044219Y-84712210D01*
X138853743Y-84712210D01*
X138758505Y-84640781D01*
X138710886Y-84569353D01*
X138663267Y-84426496D01*
X138663267Y-83997924D01*
X138710886Y-83855067D01*
X138758505Y-83783639D01*
X138853743Y-83712210D01*
X139044219Y-83712210D01*
X139139457Y-83783639D01*
X139710886Y-84712210D02*
X139615648Y-84640781D01*
X139568029Y-84569353D01*
X139520410Y-84426496D01*
X139520410Y-83997924D01*
X139568029Y-83855067D01*
X139615648Y-83783639D01*
X139710886Y-83712210D01*
X139853743Y-83712210D01*
X139948981Y-83783639D01*
X139996600Y-83855067D01*
X140044219Y-83997924D01*
X140044219Y-84426496D01*
X139996600Y-84569353D01*
X139948981Y-84640781D01*
X139853743Y-84712210D01*
X139710886Y-84712210D01*
X140425171Y-84640781D02*
X140520410Y-84712210D01*
X140710886Y-84712210D01*
X140806124Y-84640781D01*
X140853743Y-84497924D01*
X140853743Y-84426496D01*
X140806124Y-84283639D01*
X140710886Y-84212210D01*
X140568029Y-84212210D01*
X140472791Y-84140781D01*
X140425171Y-83997924D01*
X140425171Y-83926496D01*
X140472791Y-83783639D01*
X140568029Y-83712210D01*
X140710886Y-83712210D01*
X140806124Y-83783639D01*
X141663267Y-84640781D02*
X141568029Y-84712210D01*
X141377552Y-84712210D01*
X141282314Y-84640781D01*
X141234695Y-84497924D01*
X141234695Y-83926496D01*
X141282314Y-83783639D01*
X141377552Y-83712210D01*
X141568029Y-83712210D01*
X141663267Y-83783639D01*
X141710886Y-83926496D01*
X141710886Y-84069353D01*
X141234695Y-84212210D01*
X142044219Y-83712210D02*
X142282314Y-84712210D01*
X142520410Y-83712210D02*
X142282314Y-84712210D01*
X142187076Y-85069353D01*
X142139457Y-85140781D01*
X142044219Y-85212210D01*
X142758505Y-83712210D02*
X143139457Y-83712210D01*
X142901362Y-84712210D02*
X142901362Y-83426496D01*
X142948981Y-83283639D01*
X143044219Y-83212210D01*
X143139457Y-83212210D01*
X143901362Y-84712210D02*
X143901362Y-83926496D01*
X143853743Y-83783639D01*
X143758505Y-83712210D01*
X143568029Y-83712210D01*
X143472791Y-83783639D01*
X143901362Y-84640781D02*
X143806124Y-84712210D01*
X143568029Y-84712210D01*
X143472791Y-84640781D01*
X143425171Y-84497924D01*
X143425171Y-84355067D01*
X143472791Y-84212210D01*
X143568029Y-84140781D01*
X143806124Y-84140781D01*
X143901362Y-84069353D01*
X144377552Y-83712210D02*
X144377552Y-84712210D01*
X144377552Y-83855067D02*
X144425171Y-83783639D01*
X144520410Y-83712210D01*
X144663267Y-83712210D01*
X144758505Y-83783639D01*
X144806124Y-83926496D01*
X144806124Y-84712210D01*
X145282314Y-83712210D02*
X145282314Y-84712210D01*
X145282314Y-83855067D02*
X145329933Y-83783639D01*
X145425171Y-83712210D01*
X145568029Y-83712210D01*
X145663267Y-83783639D01*
X145710886Y-83926496D01*
X145710886Y-84712210D01*
X146187076Y-84712210D02*
X146187076Y-83712210D01*
X146187076Y-83212210D02*
X146139457Y-83283639D01*
X146187076Y-83355067D01*
X146234695Y-83283639D01*
X146187076Y-83212210D01*
X146187076Y-83355067D01*
X146520410Y-83712210D02*
X146901362Y-83712210D01*
X146663267Y-83212210D02*
X146663267Y-84497924D01*
X146710886Y-84640781D01*
X146806124Y-84712210D01*
X146901362Y-84712210D01*
X147663267Y-83712210D02*
X147663267Y-84712210D01*
X147234695Y-83712210D02*
X147234695Y-84497924D01*
X147282314Y-84640781D01*
X147377552Y-84712210D01*
X147520410Y-84712210D01*
X147615648Y-84640781D01*
X147663267Y-84569353D01*
X147996600Y-83712210D02*
X148377552Y-83712210D01*
X148139457Y-83212210D02*
X148139457Y-84497924D01*
X148187076Y-84640781D01*
X148282314Y-84712210D01*
X148377552Y-84712210D01*
X148568029Y-83712210D02*
X148948981Y-83712210D01*
X148710886Y-83212210D02*
X148710886Y-84497924D01*
X148758505Y-84640781D01*
X148853743Y-84712210D01*
X148948981Y-84712210D01*
X149282314Y-84712210D02*
X149282314Y-83712210D01*
X149282314Y-83212210D02*
X149234695Y-83283639D01*
X149282314Y-83355067D01*
X149329933Y-83283639D01*
X149282314Y-83212210D01*
X149282314Y-83355067D01*
X150472791Y-83355067D02*
X150520410Y-83283639D01*
X150615648Y-83212210D01*
X150853743Y-83212210D01*
X150948981Y-83283639D01*
X150996600Y-83355067D01*
X151044219Y-83497924D01*
X151044219Y-83640781D01*
X150996600Y-83855067D01*
X150425171Y-84712210D01*
X151044219Y-84712210D01*
X151663267Y-83212210D02*
X151758505Y-83212210D01*
X151853743Y-83283639D01*
X151901362Y-83355067D01*
X151948981Y-83497924D01*
X151996600Y-83783639D01*
X151996600Y-84140781D01*
X151948981Y-84426496D01*
X151901362Y-84569353D01*
X151853743Y-84640781D01*
X151758505Y-84712210D01*
X151663267Y-84712210D01*
X151568029Y-84640781D01*
X151520410Y-84569353D01*
X151472791Y-84426496D01*
X151425171Y-84140781D01*
X151425171Y-83783639D01*
X151472791Y-83497924D01*
X151520410Y-83355067D01*
X151568029Y-83283639D01*
X151663267Y-83212210D01*
X152948981Y-84712210D02*
X152377552Y-84712210D01*
X152663267Y-84712210D02*
X152663267Y-83212210D01*
X152568029Y-83426496D01*
X152472791Y-83569353D01*
X152377552Y-83640781D01*
X153425171Y-84712210D02*
X153615648Y-84712210D01*
X153710886Y-84640781D01*
X153758505Y-84569353D01*
X153853743Y-84355067D01*
X153901362Y-84069353D01*
X153901362Y-83497924D01*
X153853743Y-83355067D01*
X153806124Y-83283639D01*
X153710886Y-83212210D01*
X153520410Y-83212210D01*
X153425171Y-83283639D01*
X153377552Y-83355067D01*
X153329933Y-83497924D01*
X153329933Y-83855067D01*
X153377552Y-83997924D01*
X153425171Y-84069353D01*
X153520410Y-84140781D01*
X153710886Y-84140781D01*
X153806124Y-84069353D01*
X153853743Y-83997924D01*
X153901362Y-83855067D01*
X138710886Y-87037210D02*
X138710886Y-86037210D01*
X138710886Y-86322924D02*
X138758505Y-86180067D01*
X138806124Y-86108639D01*
X138901362Y-86037210D01*
X138996600Y-86037210D01*
X139710886Y-86965781D02*
X139615648Y-87037210D01*
X139425171Y-87037210D01*
X139329933Y-86965781D01*
X139282314Y-86822924D01*
X139282314Y-86251496D01*
X139329933Y-86108639D01*
X139425171Y-86037210D01*
X139615648Y-86037210D01*
X139710886Y-86108639D01*
X139758505Y-86251496D01*
X139758505Y-86394353D01*
X139282314Y-86537210D01*
X140091838Y-86037210D02*
X140329933Y-87037210D01*
X140568029Y-86037210D01*
X141472791Y-87037210D02*
X140901362Y-87037210D01*
X141187076Y-87037210D02*
X141187076Y-85537210D01*
X141091838Y-85751496D01*
X140996600Y-85894353D01*
X140901362Y-85965781D01*
D11*
G04 #@! TO.C,BOOT1*
X151720929Y-19693091D02*
X151720929Y-18193091D01*
X150470929Y-15693091D02*
X145970929Y-15693091D01*
X144720929Y-18193091D02*
X144720929Y-19693091D01*
X145970929Y-22193091D02*
X150470929Y-22193091D01*
G04 #@! TO.C,D2*
X176550923Y-20797330D02*
X176550923Y-23767330D01*
X178550923Y-20787330D02*
X178540923Y-23777330D01*
X176550923Y-23777330D02*
X178540923Y-23777330D01*
X177560923Y-23987330D02*
X177560923Y-22867330D01*
X177560923Y-20527330D02*
X177560923Y-21807330D01*
X176550923Y-20787330D02*
X178550923Y-20787330D01*
X177560923Y-21917330D02*
X178100923Y-22867330D01*
X177550923Y-21927330D02*
X177020923Y-22837330D01*
X177020923Y-22867330D02*
X178100923Y-22867330D01*
X177020923Y-21817330D02*
X178100923Y-21817330D01*
G04 #@! TO.C,D4*
X173696610Y-34478743D02*
X173696610Y-37448743D01*
X175696610Y-34468743D02*
X175686610Y-37458743D01*
X173696610Y-37458743D02*
X175686610Y-37458743D01*
X174706610Y-37668743D02*
X174706610Y-36548743D01*
X174706610Y-34208743D02*
X174706610Y-35488743D01*
X173696610Y-34468743D02*
X175696610Y-34468743D01*
X174706610Y-35598743D02*
X175246610Y-36548743D01*
X174696610Y-35608743D02*
X174166610Y-36518743D01*
X174166610Y-36548743D02*
X175246610Y-36548743D01*
X174166610Y-35498743D02*
X175246610Y-35498743D01*
G04 #@! TO.C,D11*
X170842297Y-34478743D02*
X170842297Y-37448743D01*
X172842297Y-34468743D02*
X172832297Y-37458743D01*
X170842297Y-37458743D02*
X172832297Y-37458743D01*
X171852297Y-37668743D02*
X171852297Y-36548743D01*
X171852297Y-34208743D02*
X171852297Y-35488743D01*
X170842297Y-34468743D02*
X172842297Y-34468743D01*
X171852297Y-35598743D02*
X172392297Y-36548743D01*
X171842297Y-35608743D02*
X171312297Y-36518743D01*
X171312297Y-36548743D02*
X172392297Y-36548743D01*
X171312297Y-35498743D02*
X172392297Y-35498743D01*
G04 #@! TO.C,D17*
X167987991Y-34478743D02*
X167987991Y-37448743D01*
X169987991Y-34468743D02*
X169977991Y-37458743D01*
X167987991Y-37458743D02*
X169977991Y-37458743D01*
X168997991Y-37668743D02*
X168997991Y-36548743D01*
X168997991Y-34208743D02*
X168997991Y-35488743D01*
X167987991Y-34468743D02*
X169987991Y-34468743D01*
X168997991Y-35598743D02*
X169537991Y-36548743D01*
X168987991Y-35608743D02*
X168457991Y-36518743D01*
X168457991Y-36548743D02*
X169537991Y-36548743D01*
X168457991Y-35498743D02*
X169537991Y-35498743D01*
G04 #@! TO.C,D16*
X165133685Y-34478743D02*
X165133685Y-37448743D01*
X167133685Y-34468743D02*
X167123685Y-37458743D01*
X165133685Y-37458743D02*
X167123685Y-37458743D01*
X166143685Y-37668743D02*
X166143685Y-36548743D01*
X166143685Y-34208743D02*
X166143685Y-35488743D01*
X165133685Y-34468743D02*
X167133685Y-34468743D01*
X166143685Y-35598743D02*
X166683685Y-36548743D01*
X166133685Y-35608743D02*
X165603685Y-36518743D01*
X165603685Y-36548743D02*
X166683685Y-36548743D01*
X165603685Y-35498743D02*
X166683685Y-35498743D01*
G04 #@! TO.C,D14*
X162279379Y-34478743D02*
X162279379Y-37448743D01*
X164279379Y-34468743D02*
X164269379Y-37458743D01*
X162279379Y-37458743D02*
X164269379Y-37458743D01*
X163289379Y-37668743D02*
X163289379Y-36548743D01*
X163289379Y-34208743D02*
X163289379Y-35488743D01*
X162279379Y-34468743D02*
X164279379Y-34468743D01*
X163289379Y-35598743D02*
X163829379Y-36548743D01*
X163279379Y-35608743D02*
X162749379Y-36518743D01*
X162749379Y-36548743D02*
X163829379Y-36548743D01*
X162749379Y-35498743D02*
X163829379Y-35498743D01*
G04 #@! TO.C,D10*
X159425073Y-34478743D02*
X159425073Y-37448743D01*
X161425073Y-34468743D02*
X161415073Y-37458743D01*
X159425073Y-37458743D02*
X161415073Y-37458743D01*
X160435073Y-37668743D02*
X160435073Y-36548743D01*
X160435073Y-34208743D02*
X160435073Y-35488743D01*
X159425073Y-34468743D02*
X161425073Y-34468743D01*
X160435073Y-35598743D02*
X160975073Y-36548743D01*
X160425073Y-35608743D02*
X159895073Y-36518743D01*
X159895073Y-36548743D02*
X160975073Y-36548743D01*
X159895073Y-35498743D02*
X160975073Y-35498743D01*
G04 #@! TO.C,D7*
X156570767Y-34478743D02*
X156570767Y-37448743D01*
X158570767Y-34468743D02*
X158560767Y-37458743D01*
X156570767Y-37458743D02*
X158560767Y-37458743D01*
X157580767Y-37668743D02*
X157580767Y-36548743D01*
X157580767Y-34208743D02*
X157580767Y-35488743D01*
X156570767Y-34468743D02*
X158570767Y-34468743D01*
X157580767Y-35598743D02*
X158120767Y-36548743D01*
X157570767Y-35608743D02*
X157040767Y-36518743D01*
X157040767Y-36548743D02*
X158120767Y-36548743D01*
X157040767Y-35498743D02*
X158120767Y-35498743D01*
G04 #@! TO.C,D3*
X153716461Y-34478743D02*
X153716461Y-37448743D01*
X155716461Y-34468743D02*
X155706461Y-37458743D01*
X153716461Y-37458743D02*
X155706461Y-37458743D01*
X154726461Y-37668743D02*
X154726461Y-36548743D01*
X154726461Y-34208743D02*
X154726461Y-35488743D01*
X153716461Y-34468743D02*
X155716461Y-34468743D01*
X154726461Y-35598743D02*
X155266461Y-36548743D01*
X154716461Y-35608743D02*
X154186461Y-36518743D01*
X154186461Y-36548743D02*
X155266461Y-36548743D01*
X154186461Y-35498743D02*
X155266461Y-35498743D01*
G04 #@! TO.C,D6*
X173696610Y-20797330D02*
X173696610Y-23767330D01*
X175696610Y-20787330D02*
X175686610Y-23777330D01*
X173696610Y-23777330D02*
X175686610Y-23777330D01*
X174706610Y-23987330D02*
X174706610Y-22867330D01*
X174706610Y-20527330D02*
X174706610Y-21807330D01*
X173696610Y-20787330D02*
X175696610Y-20787330D01*
X174706610Y-21917330D02*
X175246610Y-22867330D01*
X174696610Y-21927330D02*
X174166610Y-22837330D01*
X174166610Y-22867330D02*
X175246610Y-22867330D01*
X174166610Y-21817330D02*
X175246610Y-21817330D01*
G04 #@! TO.C,D9*
X170842297Y-20797330D02*
X170842297Y-23767330D01*
X172842297Y-20787330D02*
X172832297Y-23777330D01*
X170842297Y-23777330D02*
X172832297Y-23777330D01*
X171852297Y-23987330D02*
X171852297Y-22867330D01*
X171852297Y-20527330D02*
X171852297Y-21807330D01*
X170842297Y-20787330D02*
X172842297Y-20787330D01*
X171852297Y-21917330D02*
X172392297Y-22867330D01*
X171842297Y-21927330D02*
X171312297Y-22837330D01*
X171312297Y-22867330D02*
X172392297Y-22867330D01*
X171312297Y-21817330D02*
X172392297Y-21817330D01*
G04 #@! TO.C,D13*
X167987991Y-20797330D02*
X167987991Y-23767330D01*
X169987991Y-20787330D02*
X169977991Y-23777330D01*
X167987991Y-23777330D02*
X169977991Y-23777330D01*
X168997991Y-23987330D02*
X168997991Y-22867330D01*
X168997991Y-20527330D02*
X168997991Y-21807330D01*
X167987991Y-20787330D02*
X169987991Y-20787330D01*
X168997991Y-21917330D02*
X169537991Y-22867330D01*
X168987991Y-21927330D02*
X168457991Y-22837330D01*
X168457991Y-22867330D02*
X169537991Y-22867330D01*
X168457991Y-21817330D02*
X169537991Y-21817330D01*
G04 #@! TO.C,D15*
X165133685Y-20797330D02*
X165133685Y-23767330D01*
X167133685Y-20787330D02*
X167123685Y-23777330D01*
X165133685Y-23777330D02*
X167123685Y-23777330D01*
X166143685Y-23987330D02*
X166143685Y-22867330D01*
X166143685Y-20527330D02*
X166143685Y-21807330D01*
X165133685Y-20787330D02*
X167133685Y-20787330D01*
X166143685Y-21917330D02*
X166683685Y-22867330D01*
X166133685Y-21927330D02*
X165603685Y-22837330D01*
X165603685Y-22867330D02*
X166683685Y-22867330D01*
X165603685Y-21817330D02*
X166683685Y-21817330D01*
G04 #@! TO.C,D12*
X162279379Y-20797330D02*
X162279379Y-23767330D01*
X164279379Y-20787330D02*
X164269379Y-23777330D01*
X162279379Y-23777330D02*
X164269379Y-23777330D01*
X163289379Y-23987330D02*
X163289379Y-22867330D01*
X163289379Y-20527330D02*
X163289379Y-21807330D01*
X162279379Y-20787330D02*
X164279379Y-20787330D01*
X163289379Y-21917330D02*
X163829379Y-22867330D01*
X163279379Y-21927330D02*
X162749379Y-22837330D01*
X162749379Y-22867330D02*
X163829379Y-22867330D01*
X162749379Y-21817330D02*
X163829379Y-21817330D01*
G04 #@! TO.C,D8*
X159425073Y-20797330D02*
X159425073Y-23767330D01*
X161425073Y-20787330D02*
X161415073Y-23777330D01*
X159425073Y-23777330D02*
X161415073Y-23777330D01*
X160435073Y-23987330D02*
X160435073Y-22867330D01*
X160435073Y-20527330D02*
X160435073Y-21807330D01*
X159425073Y-20787330D02*
X161425073Y-20787330D01*
X160435073Y-21917330D02*
X160975073Y-22867330D01*
X160425073Y-21927330D02*
X159895073Y-22837330D01*
X159895073Y-22867330D02*
X160975073Y-22867330D01*
X159895073Y-21817330D02*
X160975073Y-21817330D01*
G04 #@! TO.C,D5*
X156570767Y-20797330D02*
X156570767Y-23767330D01*
X158570767Y-20787330D02*
X158560767Y-23777330D01*
X156570767Y-23777330D02*
X158560767Y-23777330D01*
X157580767Y-23987330D02*
X157580767Y-22867330D01*
X157580767Y-20527330D02*
X157580767Y-21807330D01*
X156570767Y-20787330D02*
X158570767Y-20787330D01*
X157580767Y-21917330D02*
X158120767Y-22867330D01*
X157570767Y-21927330D02*
X157040767Y-22837330D01*
X157040767Y-22867330D02*
X158120767Y-22867330D01*
X157040767Y-21817330D02*
X158120767Y-21817330D01*
G04 #@! TO.C,D1*
X153716461Y-20797330D02*
X153716461Y-23767330D01*
X155716461Y-20787330D02*
X155706461Y-23777330D01*
X153716461Y-23777330D02*
X155706461Y-23777330D01*
X154726461Y-23987330D02*
X154726461Y-22867330D01*
X154726461Y-20527330D02*
X154726461Y-21807330D01*
X153716461Y-20787330D02*
X155716461Y-20787330D01*
X154726461Y-21917330D02*
X155266461Y-22867330D01*
X154716461Y-21927330D02*
X154186461Y-22837330D01*
X154186461Y-22867330D02*
X155266461Y-22867330D01*
X154186461Y-21817330D02*
X155266461Y-21817330D01*
G04 #@! TO.C,D18*
X135044831Y-30536623D02*
X138014831Y-30536623D01*
X135034831Y-28536623D02*
X138024831Y-28546623D01*
X138024831Y-30536623D02*
X138024831Y-28546623D01*
X138234831Y-29526623D02*
X137114831Y-29526623D01*
X134774831Y-29526623D02*
X136054831Y-29526623D01*
X135034831Y-30536623D02*
X135034831Y-28536623D01*
X136164831Y-29526623D02*
X137114831Y-28986623D01*
X136174831Y-29536623D02*
X137084831Y-30066623D01*
X137114831Y-30066623D02*
X137114831Y-28986623D01*
X136064831Y-30066623D02*
X136064831Y-28986623D01*
G04 #@! TO.C,D19*
X135044831Y-27841931D02*
X138014831Y-27841931D01*
X135034831Y-25841931D02*
X138024831Y-25851931D01*
X138024831Y-27841931D02*
X138024831Y-25851931D01*
X138234831Y-26831931D02*
X137114831Y-26831931D01*
X134774831Y-26831931D02*
X136054831Y-26831931D01*
X135034831Y-27841931D02*
X135034831Y-25841931D01*
X136164831Y-26831931D02*
X137114831Y-26291931D01*
X136174831Y-26841931D02*
X137084831Y-27371931D01*
X137114831Y-27371931D02*
X137114831Y-26291931D01*
X136064831Y-27371931D02*
X136064831Y-26291931D01*
G04 #@! TO.C,C1*
X117840101Y-23489709D02*
X119098101Y-23489709D01*
X117840101Y-25329709D02*
X119098101Y-25329709D01*
G04 #@! TO.C,C2*
X114043393Y-23472211D02*
X112785393Y-23472211D01*
X114043393Y-25312211D02*
X112785393Y-25312211D01*
G04 #@! TO.C,C3*
X121753825Y-18930421D02*
G75*
G03X121753825Y-18930421I-2120000J0D01*
G01*
X118793825Y-18930421D02*
X117553825Y-18930421D01*
X121713825Y-18930421D02*
X120473825Y-18930421D01*
X118793825Y-18970421D02*
X117553825Y-18970421D01*
X121713825Y-18970421D02*
X120473825Y-18970421D01*
X118793825Y-19010421D02*
X117554825Y-19010421D01*
X121712825Y-19010421D02*
X120473825Y-19010421D01*
X121710825Y-19050421D02*
X120473825Y-19050421D01*
X118793825Y-19050421D02*
X117556825Y-19050421D01*
X121707825Y-19090421D02*
X120473825Y-19090421D01*
X118793825Y-19090421D02*
X117559825Y-19090421D01*
X121704825Y-19130421D02*
X120473825Y-19130421D01*
X118793825Y-19130421D02*
X117562825Y-19130421D01*
X121700825Y-19170421D02*
X120473825Y-19170421D01*
X118793825Y-19170421D02*
X117566825Y-19170421D01*
X121695825Y-19210421D02*
X120473825Y-19210421D01*
X118793825Y-19210421D02*
X117571825Y-19210421D01*
X121689825Y-19250421D02*
X120473825Y-19250421D01*
X118793825Y-19250421D02*
X117577825Y-19250421D01*
X121683825Y-19290421D02*
X120473825Y-19290421D01*
X118793825Y-19290421D02*
X117583825Y-19290421D01*
X121675825Y-19330421D02*
X120473825Y-19330421D01*
X118793825Y-19330421D02*
X117591825Y-19330421D01*
X121667825Y-19370421D02*
X120473825Y-19370421D01*
X118793825Y-19370421D02*
X117599825Y-19370421D01*
X121658825Y-19410421D02*
X120473825Y-19410421D01*
X118793825Y-19410421D02*
X117608825Y-19410421D01*
X121649825Y-19450421D02*
X120473825Y-19450421D01*
X118793825Y-19450421D02*
X117617825Y-19450421D01*
X121638825Y-19490421D02*
X120473825Y-19490421D01*
X118793825Y-19490421D02*
X117628825Y-19490421D01*
X121627825Y-19530421D02*
X120473825Y-19530421D01*
X118793825Y-19530421D02*
X117639825Y-19530421D01*
X121615825Y-19570421D02*
X120473825Y-19570421D01*
X118793825Y-19570421D02*
X117651825Y-19570421D01*
X121601825Y-19610421D02*
X120473825Y-19610421D01*
X118793825Y-19610421D02*
X117665825Y-19610421D01*
X121587825Y-19651421D02*
X120473825Y-19651421D01*
X118793825Y-19651421D02*
X117679825Y-19651421D01*
X121573825Y-19691421D02*
X120473825Y-19691421D01*
X118793825Y-19691421D02*
X117693825Y-19691421D01*
X121557825Y-19731421D02*
X120473825Y-19731421D01*
X118793825Y-19731421D02*
X117709825Y-19731421D01*
X121540825Y-19771421D02*
X120473825Y-19771421D01*
X118793825Y-19771421D02*
X117726825Y-19771421D01*
X121522825Y-19811421D02*
X120473825Y-19811421D01*
X118793825Y-19811421D02*
X117744825Y-19811421D01*
X121503825Y-19851421D02*
X120473825Y-19851421D01*
X118793825Y-19851421D02*
X117763825Y-19851421D01*
X121484825Y-19891421D02*
X120473825Y-19891421D01*
X118793825Y-19891421D02*
X117782825Y-19891421D01*
X121463825Y-19931421D02*
X120473825Y-19931421D01*
X118793825Y-19931421D02*
X117803825Y-19931421D01*
X121441825Y-19971421D02*
X120473825Y-19971421D01*
X118793825Y-19971421D02*
X117825825Y-19971421D01*
X121418825Y-20011421D02*
X120473825Y-20011421D01*
X118793825Y-20011421D02*
X117848825Y-20011421D01*
X121393825Y-20051421D02*
X120473825Y-20051421D01*
X118793825Y-20051421D02*
X117873825Y-20051421D01*
X121368825Y-20091421D02*
X120473825Y-20091421D01*
X118793825Y-20091421D02*
X117898825Y-20091421D01*
X121341825Y-20131421D02*
X120473825Y-20131421D01*
X118793825Y-20131421D02*
X117925825Y-20131421D01*
X121313825Y-20171421D02*
X120473825Y-20171421D01*
X118793825Y-20171421D02*
X117953825Y-20171421D01*
X121283825Y-20211421D02*
X120473825Y-20211421D01*
X118793825Y-20211421D02*
X117983825Y-20211421D01*
X121252825Y-20251421D02*
X120473825Y-20251421D01*
X118793825Y-20251421D02*
X118014825Y-20251421D01*
X121220825Y-20291421D02*
X120473825Y-20291421D01*
X118793825Y-20291421D02*
X118046825Y-20291421D01*
X121185825Y-20331421D02*
X120473825Y-20331421D01*
X118793825Y-20331421D02*
X118081825Y-20331421D01*
X121149825Y-20371421D02*
X120473825Y-20371421D01*
X118793825Y-20371421D02*
X118117825Y-20371421D01*
X121111825Y-20411421D02*
X120473825Y-20411421D01*
X118793825Y-20411421D02*
X118155825Y-20411421D01*
X121071825Y-20451421D02*
X120473825Y-20451421D01*
X118793825Y-20451421D02*
X118195825Y-20451421D01*
X121029825Y-20491421D02*
X120473825Y-20491421D01*
X118793825Y-20491421D02*
X118237825Y-20491421D01*
X120984825Y-20531421D02*
X118282825Y-20531421D01*
X120937825Y-20571421D02*
X118329825Y-20571421D01*
X120887825Y-20611421D02*
X118379825Y-20611421D01*
X120833825Y-20651421D02*
X118433825Y-20651421D01*
X120775825Y-20691421D02*
X118491825Y-20691421D01*
X120713825Y-20731421D02*
X118553825Y-20731421D01*
X120646825Y-20771421D02*
X118620825Y-20771421D01*
X120573825Y-20811421D02*
X118693825Y-20811421D01*
X120492825Y-20851421D02*
X118774825Y-20851421D01*
X120401825Y-20891421D02*
X118865825Y-20891421D01*
X120297825Y-20931421D02*
X118969825Y-20931421D01*
X120170825Y-20971421D02*
X119096825Y-20971421D01*
X120003825Y-21011421D02*
X119263825Y-21011421D01*
X120828825Y-16660620D02*
X120828825Y-17060620D01*
X121028825Y-16860620D02*
X120628825Y-16860620D01*
G04 #@! TO.C,C4*
X126517493Y-28516619D02*
X126517493Y-28501619D01*
X126517493Y-30641619D02*
X126517493Y-30626619D01*
X131057493Y-28516619D02*
X131057493Y-28501619D01*
X131057493Y-30641619D02*
X131057493Y-30626619D01*
X131057493Y-28501619D02*
X126517493Y-28501619D01*
X131057493Y-30641619D02*
X126517493Y-30641619D01*
G04 #@! TO.C,C5*
X110484993Y-35138509D02*
X110484993Y-39678509D01*
X108344993Y-35138509D02*
X108344993Y-39678509D01*
X110484993Y-35138509D02*
X110469993Y-35138509D01*
X108359993Y-35138509D02*
X108344993Y-35138509D01*
X110484993Y-39678509D02*
X110469993Y-39678509D01*
X108359993Y-39678509D02*
X108344993Y-39678509D01*
G04 #@! TO.C,R1*
X146163959Y-23227239D02*
X142323959Y-23227239D01*
X146163959Y-25067239D02*
X142323959Y-25067239D01*
G04 #@! TO.C,R2*
X126798077Y-25921931D02*
X130638077Y-25921931D01*
X126798077Y-27761931D02*
X130638077Y-27761931D01*
G04 #@! TO.C,R3*
X134549691Y-23279733D02*
X138389691Y-23279733D01*
X134549691Y-25119733D02*
X138389691Y-25119733D01*
G04 #@! TO.C,R4*
X142323959Y-30404129D02*
X146163959Y-30404129D01*
X142323959Y-28564129D02*
X146163959Y-28564129D01*
G04 #@! TO.C,R5*
X146163959Y-25851939D02*
X142323959Y-25851939D01*
X146163959Y-27691939D02*
X142323959Y-27691939D01*
G04 #@! TO.C,R6*
X146955597Y-36615743D02*
X146955597Y-32775743D01*
X148795597Y-36615743D02*
X148795597Y-32775743D01*
G04 #@! TO.C,RESET1*
X135962073Y-22193091D02*
X140462073Y-22193091D01*
X134712073Y-18193091D02*
X134712073Y-19693091D01*
X140462073Y-15693091D02*
X135962073Y-15693091D01*
X141712073Y-19693091D02*
X141712073Y-18193091D01*
G04 #@! TO.C,U1*
X146493407Y-37111307D02*
G75*
G02X146493407Y-35111307I0J1000000D01*
G01*
X146493407Y-35111307D02*
X146493407Y-33461307D01*
X146493407Y-33461307D02*
X110813407Y-33461307D01*
X110813407Y-33461307D02*
X110813407Y-38761307D01*
X110813407Y-38761307D02*
X146493407Y-38761307D01*
X146493407Y-38761307D02*
X146493407Y-37111307D01*
D10*
G04 #@! TO.C,USB1*
X127402937Y-17602987D02*
X127402937Y-18872987D01*
X131877937Y-15092987D02*
X131882937Y-15852987D01*
X131877937Y-15092987D02*
X122927937Y-15092987D01*
X122922937Y-15852987D02*
X122927937Y-15092987D01*
X131877937Y-24262987D02*
X122927937Y-24262987D01*
X132027937Y-17602987D02*
X122777937Y-17602987D01*
D11*
G04 #@! TO.C,Y1*
X120376327Y-30801767D02*
X113976327Y-30801767D01*
X120376327Y-25751767D02*
X113976327Y-25751767D01*
X120376327Y-25751767D02*
G75*
G02X120376327Y-30801767I0J-2525000D01*
G01*
X113976327Y-25751767D02*
G75*
G03X113976327Y-30801767I0J-2525000D01*
G01*
D14*
G04 #@! TO.C,J1*
X181089591Y-39733393D02*
X176009591Y-39733393D01*
X176009591Y-32113393D02*
X181089591Y-32113393D01*
X176009591Y-39733393D02*
X176009591Y-32113393D01*
X181089591Y-32113393D02*
X181089591Y-39733393D01*
D15*
X181899591Y-34623393D02*
X181099591Y-34623393D01*
X181899591Y-37173393D02*
X181899591Y-34623393D01*
X181099591Y-37173393D02*
X181899591Y-37173393D01*
G04 #@! TO.C,D2*
D10*
X179887964Y-25734623D02*
X179087964Y-25734623D01*
X179087964Y-25544147D01*
X179126060Y-25429861D01*
X179202250Y-25353670D01*
X179278440Y-25315575D01*
X179430821Y-25277480D01*
X179545107Y-25277480D01*
X179697488Y-25315575D01*
X179773679Y-25353670D01*
X179849869Y-25429861D01*
X179887964Y-25544147D01*
X179887964Y-25734623D01*
X179164155Y-24972718D02*
X179126060Y-24934623D01*
X179087964Y-24858432D01*
X179087964Y-24667956D01*
X179126060Y-24591766D01*
X179164155Y-24553670D01*
X179240345Y-24515575D01*
X179316536Y-24515575D01*
X179430821Y-24553670D01*
X179887964Y-25010813D01*
X179887964Y-24515575D01*
G04 #@! TO.C,D4*
X175058514Y-41499219D02*
X174258514Y-41499219D01*
X174258514Y-41308743D01*
X174296610Y-41194457D01*
X174372800Y-41118266D01*
X174448990Y-41080171D01*
X174601371Y-41042076D01*
X174715657Y-41042076D01*
X174868038Y-41080171D01*
X174944229Y-41118266D01*
X175020419Y-41194457D01*
X175058514Y-41308743D01*
X175058514Y-41499219D01*
X174525181Y-40356362D02*
X175058514Y-40356362D01*
X174220419Y-40546838D02*
X174791848Y-40737314D01*
X174791848Y-40242076D01*
G04 #@! TO.C,D11*
X172204201Y-41880171D02*
X171404201Y-41880171D01*
X171404201Y-41689695D01*
X171442297Y-41575409D01*
X171518487Y-41499219D01*
X171594677Y-41461123D01*
X171747058Y-41423028D01*
X171861344Y-41423028D01*
X172013725Y-41461123D01*
X172089916Y-41499219D01*
X172166106Y-41575409D01*
X172204201Y-41689695D01*
X172204201Y-41880171D01*
X172204201Y-40661123D02*
X172204201Y-41118266D01*
X172204201Y-40889695D02*
X171404201Y-40889695D01*
X171518487Y-40965885D01*
X171594677Y-41042076D01*
X171632773Y-41118266D01*
X172204201Y-39899219D02*
X172204201Y-40356362D01*
X172204201Y-40127790D02*
X171404201Y-40127790D01*
X171518487Y-40203981D01*
X171594677Y-40280171D01*
X171632773Y-40356362D01*
G04 #@! TO.C,D17*
X169349895Y-41880171D02*
X168549895Y-41880171D01*
X168549895Y-41689695D01*
X168587991Y-41575409D01*
X168664181Y-41499219D01*
X168740371Y-41461123D01*
X168892752Y-41423028D01*
X169007038Y-41423028D01*
X169159419Y-41461123D01*
X169235610Y-41499219D01*
X169311800Y-41575409D01*
X169349895Y-41689695D01*
X169349895Y-41880171D01*
X169349895Y-40661123D02*
X169349895Y-41118266D01*
X169349895Y-40889695D02*
X168549895Y-40889695D01*
X168664181Y-40965885D01*
X168740371Y-41042076D01*
X168778467Y-41118266D01*
X168549895Y-40394457D02*
X168549895Y-39861123D01*
X169349895Y-40203981D01*
G04 #@! TO.C,D16*
X166495589Y-41880171D02*
X165695589Y-41880171D01*
X165695589Y-41689695D01*
X165733685Y-41575409D01*
X165809875Y-41499219D01*
X165886065Y-41461123D01*
X166038446Y-41423028D01*
X166152732Y-41423028D01*
X166305113Y-41461123D01*
X166381304Y-41499219D01*
X166457494Y-41575409D01*
X166495589Y-41689695D01*
X166495589Y-41880171D01*
X166495589Y-40661123D02*
X166495589Y-41118266D01*
X166495589Y-40889695D02*
X165695589Y-40889695D01*
X165809875Y-40965885D01*
X165886065Y-41042076D01*
X165924161Y-41118266D01*
X165695589Y-39975409D02*
X165695589Y-40127790D01*
X165733685Y-40203981D01*
X165771780Y-40242076D01*
X165886065Y-40318266D01*
X166038446Y-40356362D01*
X166343208Y-40356362D01*
X166419399Y-40318266D01*
X166457494Y-40280171D01*
X166495589Y-40203981D01*
X166495589Y-40051600D01*
X166457494Y-39975409D01*
X166419399Y-39937314D01*
X166343208Y-39899219D01*
X166152732Y-39899219D01*
X166076542Y-39937314D01*
X166038446Y-39975409D01*
X166000351Y-40051600D01*
X166000351Y-40203981D01*
X166038446Y-40280171D01*
X166076542Y-40318266D01*
X166152732Y-40356362D01*
G04 #@! TO.C,D14*
X163641283Y-41880171D02*
X162841283Y-41880171D01*
X162841283Y-41689695D01*
X162879379Y-41575409D01*
X162955569Y-41499219D01*
X163031759Y-41461123D01*
X163184140Y-41423028D01*
X163298426Y-41423028D01*
X163450807Y-41461123D01*
X163526998Y-41499219D01*
X163603188Y-41575409D01*
X163641283Y-41689695D01*
X163641283Y-41880171D01*
X163641283Y-40661123D02*
X163641283Y-41118266D01*
X163641283Y-40889695D02*
X162841283Y-40889695D01*
X162955569Y-40965885D01*
X163031759Y-41042076D01*
X163069855Y-41118266D01*
X163107950Y-39975409D02*
X163641283Y-39975409D01*
X162803188Y-40165885D02*
X163374617Y-40356362D01*
X163374617Y-39861123D01*
G04 #@! TO.C,D10*
X160786977Y-41880171D02*
X159986977Y-41880171D01*
X159986977Y-41689695D01*
X160025073Y-41575409D01*
X160101263Y-41499219D01*
X160177453Y-41461123D01*
X160329834Y-41423028D01*
X160444120Y-41423028D01*
X160596501Y-41461123D01*
X160672692Y-41499219D01*
X160748882Y-41575409D01*
X160786977Y-41689695D01*
X160786977Y-41880171D01*
X160786977Y-40661123D02*
X160786977Y-41118266D01*
X160786977Y-40889695D02*
X159986977Y-40889695D01*
X160101263Y-40965885D01*
X160177453Y-41042076D01*
X160215549Y-41118266D01*
X159986977Y-40165885D02*
X159986977Y-40089695D01*
X160025073Y-40013504D01*
X160063168Y-39975409D01*
X160139358Y-39937314D01*
X160291739Y-39899219D01*
X160482215Y-39899219D01*
X160634596Y-39937314D01*
X160710787Y-39975409D01*
X160748882Y-40013504D01*
X160786977Y-40089695D01*
X160786977Y-40165885D01*
X160748882Y-40242076D01*
X160710787Y-40280171D01*
X160634596Y-40318266D01*
X160482215Y-40356362D01*
X160291739Y-40356362D01*
X160139358Y-40318266D01*
X160063168Y-40280171D01*
X160025073Y-40242076D01*
X159986977Y-40165885D01*
G04 #@! TO.C,D7*
X157932671Y-41499219D02*
X157132671Y-41499219D01*
X157132671Y-41308743D01*
X157170767Y-41194457D01*
X157246957Y-41118266D01*
X157323147Y-41080171D01*
X157475528Y-41042076D01*
X157589814Y-41042076D01*
X157742195Y-41080171D01*
X157818386Y-41118266D01*
X157894576Y-41194457D01*
X157932671Y-41308743D01*
X157932671Y-41499219D01*
X157132671Y-40775409D02*
X157132671Y-40242076D01*
X157932671Y-40584933D01*
G04 #@! TO.C,D3*
X155078365Y-41499219D02*
X154278365Y-41499219D01*
X154278365Y-41308743D01*
X154316461Y-41194457D01*
X154392651Y-41118266D01*
X154468841Y-41080171D01*
X154621222Y-41042076D01*
X154735508Y-41042076D01*
X154887889Y-41080171D01*
X154964080Y-41118266D01*
X155040270Y-41194457D01*
X155078365Y-41308743D01*
X155078365Y-41499219D01*
X154278365Y-40775409D02*
X154278365Y-40280171D01*
X154583127Y-40546838D01*
X154583127Y-40432552D01*
X154621222Y-40356362D01*
X154659318Y-40318266D01*
X154735508Y-40280171D01*
X154925984Y-40280171D01*
X155002175Y-40318266D01*
X155040270Y-40356362D01*
X155078365Y-40432552D01*
X155078365Y-40661123D01*
X155040270Y-40737314D01*
X155002175Y-40775409D01*
G04 #@! TO.C,D6*
X175058514Y-27817806D02*
X174258514Y-27817806D01*
X174258514Y-27627330D01*
X174296610Y-27513044D01*
X174372800Y-27436853D01*
X174448990Y-27398758D01*
X174601371Y-27360663D01*
X174715657Y-27360663D01*
X174868038Y-27398758D01*
X174944229Y-27436853D01*
X175020419Y-27513044D01*
X175058514Y-27627330D01*
X175058514Y-27817806D01*
X174258514Y-26674949D02*
X174258514Y-26827330D01*
X174296610Y-26903520D01*
X174334705Y-26941615D01*
X174448990Y-27017806D01*
X174601371Y-27055901D01*
X174906133Y-27055901D01*
X174982324Y-27017806D01*
X175020419Y-26979710D01*
X175058514Y-26903520D01*
X175058514Y-26751139D01*
X175020419Y-26674949D01*
X174982324Y-26636853D01*
X174906133Y-26598758D01*
X174715657Y-26598758D01*
X174639467Y-26636853D01*
X174601371Y-26674949D01*
X174563276Y-26751139D01*
X174563276Y-26903520D01*
X174601371Y-26979710D01*
X174639467Y-27017806D01*
X174715657Y-27055901D01*
G04 #@! TO.C,D9*
X172204201Y-27817806D02*
X171404201Y-27817806D01*
X171404201Y-27627330D01*
X171442297Y-27513044D01*
X171518487Y-27436853D01*
X171594677Y-27398758D01*
X171747058Y-27360663D01*
X171861344Y-27360663D01*
X172013725Y-27398758D01*
X172089916Y-27436853D01*
X172166106Y-27513044D01*
X172204201Y-27627330D01*
X172204201Y-27817806D01*
X172204201Y-26979710D02*
X172204201Y-26827330D01*
X172166106Y-26751139D01*
X172128011Y-26713044D01*
X172013725Y-26636853D01*
X171861344Y-26598758D01*
X171556582Y-26598758D01*
X171480392Y-26636853D01*
X171442297Y-26674949D01*
X171404201Y-26751139D01*
X171404201Y-26903520D01*
X171442297Y-26979710D01*
X171480392Y-27017806D01*
X171556582Y-27055901D01*
X171747058Y-27055901D01*
X171823249Y-27017806D01*
X171861344Y-26979710D01*
X171899439Y-26903520D01*
X171899439Y-26751139D01*
X171861344Y-26674949D01*
X171823249Y-26636853D01*
X171747058Y-26598758D01*
G04 #@! TO.C,D13*
X169349895Y-28198758D02*
X168549895Y-28198758D01*
X168549895Y-28008282D01*
X168587991Y-27893996D01*
X168664181Y-27817806D01*
X168740371Y-27779710D01*
X168892752Y-27741615D01*
X169007038Y-27741615D01*
X169159419Y-27779710D01*
X169235610Y-27817806D01*
X169311800Y-27893996D01*
X169349895Y-28008282D01*
X169349895Y-28198758D01*
X169349895Y-26979710D02*
X169349895Y-27436853D01*
X169349895Y-27208282D02*
X168549895Y-27208282D01*
X168664181Y-27284472D01*
X168740371Y-27360663D01*
X168778467Y-27436853D01*
X168549895Y-26713044D02*
X168549895Y-26217806D01*
X168854657Y-26484472D01*
X168854657Y-26370187D01*
X168892752Y-26293996D01*
X168930848Y-26255901D01*
X169007038Y-26217806D01*
X169197514Y-26217806D01*
X169273705Y-26255901D01*
X169311800Y-26293996D01*
X169349895Y-26370187D01*
X169349895Y-26598758D01*
X169311800Y-26674949D01*
X169273705Y-26713044D01*
G04 #@! TO.C,D15*
X166495589Y-28198758D02*
X165695589Y-28198758D01*
X165695589Y-28008282D01*
X165733685Y-27893996D01*
X165809875Y-27817806D01*
X165886065Y-27779710D01*
X166038446Y-27741615D01*
X166152732Y-27741615D01*
X166305113Y-27779710D01*
X166381304Y-27817806D01*
X166457494Y-27893996D01*
X166495589Y-28008282D01*
X166495589Y-28198758D01*
X166495589Y-26979710D02*
X166495589Y-27436853D01*
X166495589Y-27208282D02*
X165695589Y-27208282D01*
X165809875Y-27284472D01*
X165886065Y-27360663D01*
X165924161Y-27436853D01*
X165695589Y-26255901D02*
X165695589Y-26636853D01*
X166076542Y-26674949D01*
X166038446Y-26636853D01*
X166000351Y-26560663D01*
X166000351Y-26370187D01*
X166038446Y-26293996D01*
X166076542Y-26255901D01*
X166152732Y-26217806D01*
X166343208Y-26217806D01*
X166419399Y-26255901D01*
X166457494Y-26293996D01*
X166495589Y-26370187D01*
X166495589Y-26560663D01*
X166457494Y-26636853D01*
X166419399Y-26674949D01*
G04 #@! TO.C,D12*
X163641283Y-28198758D02*
X162841283Y-28198758D01*
X162841283Y-28008282D01*
X162879379Y-27893996D01*
X162955569Y-27817806D01*
X163031759Y-27779710D01*
X163184140Y-27741615D01*
X163298426Y-27741615D01*
X163450807Y-27779710D01*
X163526998Y-27817806D01*
X163603188Y-27893996D01*
X163641283Y-28008282D01*
X163641283Y-28198758D01*
X163641283Y-26979710D02*
X163641283Y-27436853D01*
X163641283Y-27208282D02*
X162841283Y-27208282D01*
X162955569Y-27284472D01*
X163031759Y-27360663D01*
X163069855Y-27436853D01*
X162917474Y-26674949D02*
X162879379Y-26636853D01*
X162841283Y-26560663D01*
X162841283Y-26370187D01*
X162879379Y-26293996D01*
X162917474Y-26255901D01*
X162993664Y-26217806D01*
X163069855Y-26217806D01*
X163184140Y-26255901D01*
X163641283Y-26713044D01*
X163641283Y-26217806D01*
G04 #@! TO.C,D8*
X160786977Y-27817806D02*
X159986977Y-27817806D01*
X159986977Y-27627330D01*
X160025073Y-27513044D01*
X160101263Y-27436853D01*
X160177453Y-27398758D01*
X160329834Y-27360663D01*
X160444120Y-27360663D01*
X160596501Y-27398758D01*
X160672692Y-27436853D01*
X160748882Y-27513044D01*
X160786977Y-27627330D01*
X160786977Y-27817806D01*
X160329834Y-26903520D02*
X160291739Y-26979710D01*
X160253644Y-27017806D01*
X160177453Y-27055901D01*
X160139358Y-27055901D01*
X160063168Y-27017806D01*
X160025073Y-26979710D01*
X159986977Y-26903520D01*
X159986977Y-26751139D01*
X160025073Y-26674949D01*
X160063168Y-26636853D01*
X160139358Y-26598758D01*
X160177453Y-26598758D01*
X160253644Y-26636853D01*
X160291739Y-26674949D01*
X160329834Y-26751139D01*
X160329834Y-26903520D01*
X160367930Y-26979710D01*
X160406025Y-27017806D01*
X160482215Y-27055901D01*
X160634596Y-27055901D01*
X160710787Y-27017806D01*
X160748882Y-26979710D01*
X160786977Y-26903520D01*
X160786977Y-26751139D01*
X160748882Y-26674949D01*
X160710787Y-26636853D01*
X160634596Y-26598758D01*
X160482215Y-26598758D01*
X160406025Y-26636853D01*
X160367930Y-26674949D01*
X160329834Y-26751139D01*
G04 #@! TO.C,D5*
X157932671Y-27817806D02*
X157132671Y-27817806D01*
X157132671Y-27627330D01*
X157170767Y-27513044D01*
X157246957Y-27436853D01*
X157323147Y-27398758D01*
X157475528Y-27360663D01*
X157589814Y-27360663D01*
X157742195Y-27398758D01*
X157818386Y-27436853D01*
X157894576Y-27513044D01*
X157932671Y-27627330D01*
X157932671Y-27817806D01*
X157132671Y-26636853D02*
X157132671Y-27017806D01*
X157513624Y-27055901D01*
X157475528Y-27017806D01*
X157437433Y-26941615D01*
X157437433Y-26751139D01*
X157475528Y-26674949D01*
X157513624Y-26636853D01*
X157589814Y-26598758D01*
X157780290Y-26598758D01*
X157856481Y-26636853D01*
X157894576Y-26674949D01*
X157932671Y-26751139D01*
X157932671Y-26941615D01*
X157894576Y-27017806D01*
X157856481Y-27055901D01*
G04 #@! TO.C,D1*
X155078365Y-27817806D02*
X154278365Y-27817806D01*
X154278365Y-27627330D01*
X154316461Y-27513044D01*
X154392651Y-27436853D01*
X154468841Y-27398758D01*
X154621222Y-27360663D01*
X154735508Y-27360663D01*
X154887889Y-27398758D01*
X154964080Y-27436853D01*
X155040270Y-27513044D01*
X155078365Y-27627330D01*
X155078365Y-27817806D01*
X155078365Y-26598758D02*
X155078365Y-27055901D01*
X155078365Y-26827330D02*
X154278365Y-26827330D01*
X154392651Y-26903520D01*
X154468841Y-26979710D01*
X154506937Y-27055901D01*
G04 #@! TO.C,F1*
D12*
X110014639Y-15450087D02*
X109633687Y-15450087D01*
X109595592Y-15831040D01*
X109633687Y-15792944D01*
X109709878Y-15754849D01*
X109900354Y-15754849D01*
X109976544Y-15792944D01*
X110014639Y-15831040D01*
X110052735Y-15907230D01*
X110052735Y-16097706D01*
X110014639Y-16173897D01*
X109976544Y-16211992D01*
X109900354Y-16250087D01*
X109709878Y-16250087D01*
X109633687Y-16211992D01*
X109595592Y-16173897D01*
X110547973Y-15450087D02*
X110624163Y-15450087D01*
X110700354Y-15488183D01*
X110738449Y-15526278D01*
X110776544Y-15602468D01*
X110814639Y-15754849D01*
X110814639Y-15945325D01*
X110776544Y-16097706D01*
X110738449Y-16173897D01*
X110700354Y-16211992D01*
X110624163Y-16250087D01*
X110547973Y-16250087D01*
X110471782Y-16211992D01*
X110433687Y-16173897D01*
X110395592Y-16097706D01*
X110357497Y-15945325D01*
X110357497Y-15754849D01*
X110395592Y-15602468D01*
X110433687Y-15526278D01*
X110471782Y-15488183D01*
X110547973Y-15450087D01*
X111309878Y-15450087D02*
X111386068Y-15450087D01*
X111462259Y-15488183D01*
X111500354Y-15526278D01*
X111538449Y-15602468D01*
X111576544Y-15754849D01*
X111576544Y-15945325D01*
X111538449Y-16097706D01*
X111500354Y-16173897D01*
X111462259Y-16211992D01*
X111386068Y-16250087D01*
X111309878Y-16250087D01*
X111233687Y-16211992D01*
X111195592Y-16173897D01*
X111157497Y-16097706D01*
X111119401Y-15945325D01*
X111119401Y-15754849D01*
X111157497Y-15602468D01*
X111195592Y-15526278D01*
X111233687Y-15488183D01*
X111309878Y-15450087D01*
X111919401Y-16250087D02*
X111919401Y-15716754D01*
X111919401Y-15792944D02*
X111957497Y-15754849D01*
X112033687Y-15716754D01*
X112147973Y-15716754D01*
X112224163Y-15754849D01*
X112262259Y-15831040D01*
X112262259Y-16250087D01*
X112262259Y-15831040D02*
X112300354Y-15754849D01*
X112376544Y-15716754D01*
X112490830Y-15716754D01*
X112567020Y-15754849D01*
X112605116Y-15831040D01*
X112605116Y-16250087D01*
X112947973Y-16021516D02*
X113328925Y-16021516D01*
X112871782Y-16250087D02*
X113138449Y-15450087D01*
X113405116Y-16250087D01*
D10*
X115612844Y-20489832D02*
X115612844Y-20823166D01*
X116136653Y-20823166D02*
X115136653Y-20823166D01*
X115136653Y-20346975D01*
X115136653Y-19966023D02*
X115946177Y-19966023D01*
X116041415Y-19918404D01*
X116089034Y-19870785D01*
X116136653Y-19775547D01*
X116136653Y-19585070D01*
X116089034Y-19489832D01*
X116041415Y-19442213D01*
X115946177Y-19394594D01*
X115136653Y-19394594D01*
X116089034Y-18966023D02*
X116136653Y-18823166D01*
X116136653Y-18585070D01*
X116089034Y-18489832D01*
X116041415Y-18442213D01*
X115946177Y-18394594D01*
X115850939Y-18394594D01*
X115755701Y-18442213D01*
X115708082Y-18489832D01*
X115660463Y-18585070D01*
X115612844Y-18775547D01*
X115565225Y-18870785D01*
X115517606Y-18918404D01*
X115422368Y-18966023D01*
X115327130Y-18966023D01*
X115231892Y-18918404D01*
X115184273Y-18870785D01*
X115136653Y-18775547D01*
X115136653Y-18537451D01*
X115184273Y-18394594D01*
X115612844Y-17966023D02*
X115612844Y-17632689D01*
X116136653Y-17489832D02*
X116136653Y-17966023D01*
X115136653Y-17966023D01*
X115136653Y-17489832D01*
G04 #@! TO.C,C1*
D12*
X118006183Y-21918267D02*
X117968088Y-21956362D01*
X117853802Y-21994457D01*
X117777612Y-21994457D01*
X117663326Y-21956362D01*
X117587136Y-21880172D01*
X117549040Y-21803981D01*
X117510945Y-21651600D01*
X117510945Y-21537314D01*
X117549040Y-21384933D01*
X117587136Y-21308743D01*
X117663326Y-21232553D01*
X117777612Y-21194457D01*
X117853802Y-21194457D01*
X117968088Y-21232553D01*
X118006183Y-21270648D01*
X118768088Y-21994457D02*
X118310945Y-21994457D01*
X118539517Y-21994457D02*
X118539517Y-21194457D01*
X118463326Y-21308743D01*
X118387136Y-21384933D01*
X118310945Y-21423029D01*
X117510945Y-22349651D02*
X117549040Y-22311556D01*
X117625231Y-22273460D01*
X117815707Y-22273460D01*
X117891897Y-22311556D01*
X117929993Y-22349651D01*
X117968088Y-22425841D01*
X117968088Y-22502032D01*
X117929993Y-22616317D01*
X117472850Y-23073460D01*
X117968088Y-23073460D01*
X118272850Y-22349651D02*
X118310945Y-22311556D01*
X118387135Y-22273460D01*
X118577612Y-22273460D01*
X118653802Y-22311556D01*
X118691897Y-22349651D01*
X118729993Y-22425841D01*
X118729993Y-22502032D01*
X118691897Y-22616317D01*
X118234754Y-23073460D01*
X118729993Y-23073460D01*
X119072850Y-22540127D02*
X119072850Y-23340127D01*
X119072850Y-22578222D02*
X119149040Y-22540127D01*
X119301421Y-22540127D01*
X119377612Y-22578222D01*
X119415707Y-22616317D01*
X119453802Y-22692508D01*
X119453802Y-22921079D01*
X119415707Y-22997270D01*
X119377612Y-23035365D01*
X119301421Y-23073460D01*
X119149040Y-23073460D01*
X119072850Y-23035365D01*
G04 #@! TO.C,C2*
X111829821Y-21918267D02*
X111791726Y-21956362D01*
X111677440Y-21994457D01*
X111601250Y-21994457D01*
X111486964Y-21956362D01*
X111410774Y-21880172D01*
X111372678Y-21803981D01*
X111334583Y-21651600D01*
X111334583Y-21537314D01*
X111372678Y-21384933D01*
X111410774Y-21308743D01*
X111486964Y-21232553D01*
X111601250Y-21194457D01*
X111677440Y-21194457D01*
X111791726Y-21232553D01*
X111829821Y-21270648D01*
X112134583Y-21270648D02*
X112172678Y-21232553D01*
X112248869Y-21194457D01*
X112439345Y-21194457D01*
X112515535Y-21232553D01*
X112553631Y-21270648D01*
X112591726Y-21346838D01*
X112591726Y-21423029D01*
X112553631Y-21537314D01*
X112096488Y-21994457D01*
X112591726Y-21994457D01*
X111334583Y-22349651D02*
X111372678Y-22311556D01*
X111448869Y-22273460D01*
X111639345Y-22273460D01*
X111715535Y-22311556D01*
X111753631Y-22349651D01*
X111791726Y-22425841D01*
X111791726Y-22502032D01*
X111753631Y-22616317D01*
X111296488Y-23073460D01*
X111791726Y-23073460D01*
X112096488Y-22349651D02*
X112134583Y-22311556D01*
X112210773Y-22273460D01*
X112401250Y-22273460D01*
X112477440Y-22311556D01*
X112515535Y-22349651D01*
X112553631Y-22425841D01*
X112553631Y-22502032D01*
X112515535Y-22616317D01*
X112058392Y-23073460D01*
X112553631Y-23073460D01*
X112896488Y-22540127D02*
X112896488Y-23340127D01*
X112896488Y-22578222D02*
X112972678Y-22540127D01*
X113125059Y-22540127D01*
X113201250Y-22578222D01*
X113239345Y-22616317D01*
X113277440Y-22692508D01*
X113277440Y-22921079D01*
X113239345Y-22997270D01*
X113201250Y-23035365D01*
X113125059Y-23073460D01*
X112972678Y-23073460D01*
X112896488Y-23035365D01*
G04 #@! TO.C,C3*
D10*
X119572146Y-16297819D02*
X119524527Y-16345438D01*
X119381670Y-16393057D01*
X119286432Y-16393057D01*
X119143574Y-16345438D01*
X119048336Y-16250200D01*
X119000717Y-16154962D01*
X118953098Y-15964486D01*
X118953098Y-15821629D01*
X119000717Y-15631153D01*
X119048336Y-15535915D01*
X119143574Y-15440677D01*
X119286432Y-15393057D01*
X119381670Y-15393057D01*
X119524527Y-15440677D01*
X119572146Y-15488296D01*
X119905479Y-15393057D02*
X120524527Y-15393057D01*
X120191193Y-15774010D01*
X120334051Y-15774010D01*
X120429289Y-15821629D01*
X120476908Y-15869248D01*
X120524527Y-15964486D01*
X120524527Y-16202581D01*
X120476908Y-16297819D01*
X120429289Y-16345438D01*
X120334051Y-16393057D01*
X120048336Y-16393057D01*
X119953098Y-16345438D01*
X119905479Y-16297819D01*
G04 #@! TO.C,C4*
D12*
X124275076Y-29786780D02*
X124236981Y-29824875D01*
X124122695Y-29862970D01*
X124046505Y-29862970D01*
X123932219Y-29824875D01*
X123856029Y-29748685D01*
X123817933Y-29672494D01*
X123779838Y-29520113D01*
X123779838Y-29405827D01*
X123817933Y-29253446D01*
X123856029Y-29177256D01*
X123932219Y-29101066D01*
X124046505Y-29062970D01*
X124122695Y-29062970D01*
X124236981Y-29101066D01*
X124275076Y-29139161D01*
X124960790Y-29329637D02*
X124960790Y-29862970D01*
X124770314Y-29024875D02*
X124579838Y-29596304D01*
X125075076Y-29596304D01*
X127793900Y-29151021D02*
X127870090Y-29151021D01*
X127946281Y-29189117D01*
X127984376Y-29227212D01*
X128022471Y-29303402D01*
X128060567Y-29455783D01*
X128060567Y-29646259D01*
X128022471Y-29798640D01*
X127984376Y-29874831D01*
X127946281Y-29912926D01*
X127870090Y-29951021D01*
X127793900Y-29951021D01*
X127717709Y-29912926D01*
X127679614Y-29874831D01*
X127641519Y-29798640D01*
X127603424Y-29646259D01*
X127603424Y-29455783D01*
X127641519Y-29303402D01*
X127679614Y-29227212D01*
X127717709Y-29189117D01*
X127793900Y-29151021D01*
X128403424Y-29874831D02*
X128441519Y-29912926D01*
X128403424Y-29951021D01*
X128365329Y-29912926D01*
X128403424Y-29874831D01*
X128403424Y-29951021D01*
X129203424Y-29951021D02*
X128746281Y-29951021D01*
X128974852Y-29951021D02*
X128974852Y-29151021D01*
X128898662Y-29265307D01*
X128822471Y-29341497D01*
X128746281Y-29379593D01*
X129889138Y-29417688D02*
X129889138Y-29951021D01*
X129546281Y-29417688D02*
X129546281Y-29836736D01*
X129584376Y-29912926D01*
X129660567Y-29951021D01*
X129774852Y-29951021D01*
X129851043Y-29912926D01*
X129889138Y-29874831D01*
G04 #@! TO.C,C5*
X109314571Y-33566276D02*
X109276476Y-33604371D01*
X109162190Y-33642466D01*
X109086000Y-33642466D01*
X108971714Y-33604371D01*
X108895524Y-33528181D01*
X108857428Y-33451990D01*
X108819333Y-33299609D01*
X108819333Y-33185323D01*
X108857428Y-33032942D01*
X108895524Y-32956752D01*
X108971714Y-32880562D01*
X109086000Y-32842466D01*
X109162190Y-32842466D01*
X109276476Y-32880562D01*
X109314571Y-32918657D01*
X110038381Y-32842466D02*
X109657428Y-32842466D01*
X109619333Y-33223419D01*
X109657428Y-33185323D01*
X109733619Y-33147228D01*
X109924095Y-33147228D01*
X110000285Y-33185323D01*
X110038381Y-33223419D01*
X110076476Y-33299609D01*
X110076476Y-33490085D01*
X110038381Y-33566276D01*
X110000285Y-33604371D01*
X109924095Y-33642466D01*
X109733619Y-33642466D01*
X109657428Y-33604371D01*
X109619333Y-33566276D01*
X108957316Y-38346444D02*
X108957316Y-38270254D01*
X108995412Y-38194063D01*
X109033507Y-38155968D01*
X109109697Y-38117873D01*
X109262078Y-38079777D01*
X109452554Y-38079777D01*
X109604935Y-38117873D01*
X109681126Y-38155968D01*
X109719221Y-38194063D01*
X109757316Y-38270254D01*
X109757316Y-38346444D01*
X109719221Y-38422635D01*
X109681126Y-38460730D01*
X109604935Y-38498825D01*
X109452554Y-38536920D01*
X109262078Y-38536920D01*
X109109697Y-38498825D01*
X109033507Y-38460730D01*
X108995412Y-38422635D01*
X108957316Y-38346444D01*
X109681126Y-37736920D02*
X109719221Y-37698825D01*
X109757316Y-37736920D01*
X109719221Y-37775016D01*
X109681126Y-37736920D01*
X109757316Y-37736920D01*
X109757316Y-36936920D02*
X109757316Y-37394063D01*
X109757316Y-37165492D02*
X108957316Y-37165492D01*
X109071602Y-37241682D01*
X109147792Y-37317873D01*
X109185888Y-37394063D01*
X109223983Y-36251206D02*
X109757316Y-36251206D01*
X109223983Y-36594063D02*
X109643031Y-36594063D01*
X109719221Y-36555968D01*
X109757316Y-36479777D01*
X109757316Y-36365492D01*
X109719221Y-36289301D01*
X109681126Y-36251206D01*
G04 #@! TO.C,R1*
X148526842Y-24508684D02*
X148260176Y-24127732D01*
X148069699Y-24508684D02*
X148069699Y-23708684D01*
X148374461Y-23708684D01*
X148450652Y-23746780D01*
X148488747Y-23784875D01*
X148526842Y-23861065D01*
X148526842Y-23975351D01*
X148488747Y-24051541D01*
X148450652Y-24089637D01*
X148374461Y-24127732D01*
X148069699Y-24127732D01*
X149288747Y-24508684D02*
X148831604Y-24508684D01*
X149060176Y-24508684D02*
X149060176Y-23708684D01*
X148983985Y-23822970D01*
X148907795Y-23899160D01*
X148831604Y-23937256D01*
X143523967Y-24561740D02*
X143066825Y-24561740D01*
X143295396Y-24561740D02*
X143295396Y-23761740D01*
X143219205Y-23876026D01*
X143143015Y-23952216D01*
X143066825Y-23990312D01*
X143866825Y-24485550D02*
X143904920Y-24523645D01*
X143866825Y-24561740D01*
X143828729Y-24523645D01*
X143866825Y-24485550D01*
X143866825Y-24561740D01*
X144628729Y-23761740D02*
X144247777Y-23761740D01*
X144209682Y-24142693D01*
X144247777Y-24104597D01*
X144323967Y-24066502D01*
X144514444Y-24066502D01*
X144590634Y-24104597D01*
X144628729Y-24142693D01*
X144666825Y-24218883D01*
X144666825Y-24409359D01*
X144628729Y-24485550D01*
X144590634Y-24523645D01*
X144514444Y-24561740D01*
X144323967Y-24561740D01*
X144247777Y-24523645D01*
X144209682Y-24485550D01*
X145009682Y-24561740D02*
X145009682Y-23761740D01*
X145466825Y-24561740D02*
X145123967Y-24104597D01*
X145466825Y-23761740D02*
X145009682Y-24218883D01*
G04 #@! TO.C,R2*
X124275076Y-27185827D02*
X124008410Y-26804875D01*
X123817933Y-27185827D02*
X123817933Y-26385827D01*
X124122695Y-26385827D01*
X124198886Y-26423923D01*
X124236981Y-26462018D01*
X124275076Y-26538208D01*
X124275076Y-26652494D01*
X124236981Y-26728684D01*
X124198886Y-26766780D01*
X124122695Y-26804875D01*
X123817933Y-26804875D01*
X124579838Y-26462018D02*
X124617933Y-26423923D01*
X124694124Y-26385827D01*
X124884600Y-26385827D01*
X124960790Y-26423923D01*
X124998886Y-26462018D01*
X125036981Y-26538208D01*
X125036981Y-26614399D01*
X124998886Y-26728684D01*
X124541743Y-27185827D01*
X125036981Y-27185827D01*
X127984376Y-26385827D02*
X127603424Y-26385827D01*
X127565329Y-26766780D01*
X127603424Y-26728684D01*
X127679614Y-26690589D01*
X127870090Y-26690589D01*
X127946281Y-26728684D01*
X127984376Y-26766780D01*
X128022471Y-26842970D01*
X128022471Y-27033446D01*
X127984376Y-27109637D01*
X127946281Y-27147732D01*
X127870090Y-27185827D01*
X127679614Y-27185827D01*
X127603424Y-27147732D01*
X127565329Y-27109637D01*
X128365329Y-27109637D02*
X128403424Y-27147732D01*
X128365329Y-27185827D01*
X128327233Y-27147732D01*
X128365329Y-27109637D01*
X128365329Y-27185827D01*
X129165329Y-27185827D02*
X128708186Y-27185827D01*
X128936757Y-27185827D02*
X128936757Y-26385827D01*
X128860567Y-26500113D01*
X128784376Y-26576303D01*
X128708186Y-26614399D01*
X129508186Y-27185827D02*
X129508186Y-26385827D01*
X129965329Y-27185827D02*
X129622471Y-26728684D01*
X129965329Y-26385827D02*
X129508186Y-26842970D01*
G04 #@! TO.C,R3*
X132096533Y-25296079D02*
X131829867Y-24915127D01*
X131639390Y-25296079D02*
X131639390Y-24496079D01*
X131944152Y-24496079D01*
X132020343Y-24534175D01*
X132058438Y-24572270D01*
X132096533Y-24648460D01*
X132096533Y-24762746D01*
X132058438Y-24838936D01*
X132020343Y-24877032D01*
X131944152Y-24915127D01*
X131639390Y-24915127D01*
X132363200Y-24496079D02*
X132858438Y-24496079D01*
X132591771Y-24800841D01*
X132706057Y-24800841D01*
X132782247Y-24838936D01*
X132820343Y-24877032D01*
X132858438Y-24953222D01*
X132858438Y-25143698D01*
X132820343Y-25219889D01*
X132782247Y-25257984D01*
X132706057Y-25296079D01*
X132477486Y-25296079D01*
X132401295Y-25257984D01*
X132363200Y-25219889D01*
X135858326Y-23831629D02*
X135477374Y-23831629D01*
X135439279Y-24212582D01*
X135477374Y-24174486D01*
X135553564Y-24136391D01*
X135744040Y-24136391D01*
X135820231Y-24174486D01*
X135858326Y-24212582D01*
X135896421Y-24288772D01*
X135896421Y-24479248D01*
X135858326Y-24555439D01*
X135820231Y-24593534D01*
X135744040Y-24631629D01*
X135553564Y-24631629D01*
X135477374Y-24593534D01*
X135439279Y-24555439D01*
X136239279Y-24555439D02*
X136277374Y-24593534D01*
X136239279Y-24631629D01*
X136201183Y-24593534D01*
X136239279Y-24555439D01*
X136239279Y-24631629D01*
X137039279Y-24631629D02*
X136582136Y-24631629D01*
X136810707Y-24631629D02*
X136810707Y-23831629D01*
X136734517Y-23945915D01*
X136658326Y-24022105D01*
X136582136Y-24060201D01*
X137382136Y-24631629D02*
X137382136Y-23831629D01*
X137839279Y-24631629D02*
X137496421Y-24174486D01*
X137839279Y-23831629D02*
X137382136Y-24288772D01*
G04 #@! TO.C,R4*
X148526842Y-29846033D02*
X148260176Y-29465081D01*
X148069699Y-29846033D02*
X148069699Y-29046033D01*
X148374461Y-29046033D01*
X148450652Y-29084129D01*
X148488747Y-29122224D01*
X148526842Y-29198414D01*
X148526842Y-29312700D01*
X148488747Y-29388890D01*
X148450652Y-29426986D01*
X148374461Y-29465081D01*
X148069699Y-29465081D01*
X149212556Y-29312700D02*
X149212556Y-29846033D01*
X149022080Y-29007938D02*
X148831604Y-29579367D01*
X149326842Y-29579367D01*
X143222640Y-29063531D02*
X143755974Y-29063531D01*
X143413117Y-29863531D01*
X144441688Y-29063531D02*
X144060736Y-29063531D01*
X144022640Y-29444484D01*
X144060736Y-29406388D01*
X144136926Y-29368293D01*
X144327402Y-29368293D01*
X144403593Y-29406388D01*
X144441688Y-29444484D01*
X144479783Y-29520674D01*
X144479783Y-29711150D01*
X144441688Y-29787341D01*
X144403593Y-29825436D01*
X144327402Y-29863531D01*
X144136926Y-29863531D01*
X144060736Y-29825436D01*
X144022640Y-29787341D01*
X145279783Y-29863531D02*
X145013117Y-29482579D01*
X144822640Y-29863531D02*
X144822640Y-29063531D01*
X145127402Y-29063531D01*
X145203593Y-29101627D01*
X145241688Y-29139722D01*
X145279783Y-29215912D01*
X145279783Y-29330198D01*
X145241688Y-29406388D01*
X145203593Y-29444484D01*
X145127402Y-29482579D01*
X144822640Y-29482579D01*
G04 #@! TO.C,R5*
X148526842Y-27133334D02*
X148260176Y-26752382D01*
X148069699Y-27133334D02*
X148069699Y-26333334D01*
X148374461Y-26333334D01*
X148450652Y-26371430D01*
X148488747Y-26409525D01*
X148526842Y-26485715D01*
X148526842Y-26600001D01*
X148488747Y-26676191D01*
X148450652Y-26714287D01*
X148374461Y-26752382D01*
X148069699Y-26752382D01*
X149250652Y-26333334D02*
X148869699Y-26333334D01*
X148831604Y-26714287D01*
X148869699Y-26676191D01*
X148945890Y-26638096D01*
X149136366Y-26638096D01*
X149212556Y-26676191D01*
X149250652Y-26714287D01*
X149288747Y-26790477D01*
X149288747Y-26980953D01*
X149250652Y-27057144D01*
X149212556Y-27095239D01*
X149136366Y-27133334D01*
X148945890Y-27133334D01*
X148869699Y-27095239D01*
X148831604Y-27057144D01*
X143222640Y-26368839D02*
X143755974Y-26368839D01*
X143413117Y-27168839D01*
X144441688Y-26368839D02*
X144060736Y-26368839D01*
X144022640Y-26749792D01*
X144060736Y-26711696D01*
X144136926Y-26673601D01*
X144327402Y-26673601D01*
X144403593Y-26711696D01*
X144441688Y-26749792D01*
X144479783Y-26825982D01*
X144479783Y-27016458D01*
X144441688Y-27092649D01*
X144403593Y-27130744D01*
X144327402Y-27168839D01*
X144136926Y-27168839D01*
X144060736Y-27130744D01*
X144022640Y-27092649D01*
X145279783Y-27168839D02*
X145013117Y-26787887D01*
X144822640Y-27168839D02*
X144822640Y-26368839D01*
X145127402Y-26368839D01*
X145203593Y-26406935D01*
X145241688Y-26445030D01*
X145279783Y-26521220D01*
X145279783Y-26635506D01*
X145241688Y-26711696D01*
X145203593Y-26749792D01*
X145127402Y-26787887D01*
X144822640Y-26787887D01*
G04 #@! TO.C,R6*
X149576702Y-35112270D02*
X149310036Y-34731318D01*
X149119559Y-35112270D02*
X149119559Y-34312270D01*
X149424321Y-34312270D01*
X149500512Y-34350366D01*
X149538607Y-34388461D01*
X149576702Y-34464651D01*
X149576702Y-34578937D01*
X149538607Y-34655127D01*
X149500512Y-34693223D01*
X149424321Y-34731318D01*
X149119559Y-34731318D01*
X150262416Y-34312270D02*
X150110036Y-34312270D01*
X150033845Y-34350366D01*
X149995750Y-34388461D01*
X149919559Y-34502746D01*
X149881464Y-34655127D01*
X149881464Y-34959889D01*
X149919559Y-35036080D01*
X149957655Y-35074175D01*
X150033845Y-35112270D01*
X150186226Y-35112270D01*
X150262416Y-35074175D01*
X150300512Y-35036080D01*
X150338607Y-34959889D01*
X150338607Y-34769413D01*
X150300512Y-34693223D01*
X150262416Y-34655127D01*
X150186226Y-34617032D01*
X150033845Y-34617032D01*
X149957655Y-34655127D01*
X149919559Y-34693223D01*
X149881464Y-34769413D01*
X148287178Y-35302746D02*
X148287178Y-35759889D01*
X148287178Y-35531318D02*
X147487178Y-35531318D01*
X147601464Y-35607508D01*
X147677654Y-35683699D01*
X147715750Y-35759889D01*
X147487178Y-34807508D02*
X147487178Y-34731318D01*
X147525274Y-34655127D01*
X147563369Y-34617032D01*
X147639559Y-34578937D01*
X147791940Y-34540842D01*
X147982416Y-34540842D01*
X148134797Y-34578937D01*
X148210988Y-34617032D01*
X148249083Y-34655127D01*
X148287178Y-34731318D01*
X148287178Y-34807508D01*
X148249083Y-34883699D01*
X148210988Y-34921794D01*
X148134797Y-34959889D01*
X147982416Y-34997985D01*
X147791940Y-34997985D01*
X147639559Y-34959889D01*
X147563369Y-34921794D01*
X147525274Y-34883699D01*
X147487178Y-34807508D01*
X148287178Y-34197985D02*
X147487178Y-34197985D01*
X148287178Y-33740842D02*
X147830035Y-34083699D01*
X147487178Y-33740842D02*
X147944321Y-34197985D01*
G04 #@! TO.C,USB1*
D10*
X125673958Y-15801539D02*
X125673958Y-16611063D01*
X125721577Y-16706301D01*
X125769196Y-16753920D01*
X125864434Y-16801539D01*
X126054911Y-16801539D01*
X126150149Y-16753920D01*
X126197768Y-16706301D01*
X126245387Y-16611063D01*
X126245387Y-15801539D01*
X126673958Y-16753920D02*
X126816815Y-16801539D01*
X127054911Y-16801539D01*
X127150149Y-16753920D01*
X127197768Y-16706301D01*
X127245387Y-16611063D01*
X127245387Y-16515825D01*
X127197768Y-16420587D01*
X127150149Y-16372968D01*
X127054911Y-16325349D01*
X126864434Y-16277730D01*
X126769196Y-16230111D01*
X126721577Y-16182492D01*
X126673958Y-16087254D01*
X126673958Y-15992016D01*
X126721577Y-15896778D01*
X126769196Y-15849159D01*
X126864434Y-15801539D01*
X127102530Y-15801539D01*
X127245387Y-15849159D01*
X128007292Y-16277730D02*
X128150149Y-16325349D01*
X128197768Y-16372968D01*
X128245387Y-16468206D01*
X128245387Y-16611063D01*
X128197768Y-16706301D01*
X128150149Y-16753920D01*
X128054911Y-16801539D01*
X127673958Y-16801539D01*
X127673958Y-15801539D01*
X128007292Y-15801539D01*
X128102530Y-15849159D01*
X128150149Y-15896778D01*
X128197768Y-15992016D01*
X128197768Y-16087254D01*
X128150149Y-16182492D01*
X128102530Y-16230111D01*
X128007292Y-16277730D01*
X127673958Y-16277730D01*
X129197768Y-16801539D02*
X128626339Y-16801539D01*
X128912054Y-16801539D02*
X128912054Y-15801539D01*
X128816815Y-15944397D01*
X128721577Y-16039635D01*
X128626339Y-16087254D01*
G04 #@! TO.C,Y1*
X116707914Y-28235459D02*
X116707914Y-28711649D01*
X116374581Y-27711649D02*
X116707914Y-28235459D01*
X117041247Y-27711649D01*
X117898390Y-28711649D02*
X117326962Y-28711649D01*
X117612676Y-28711649D02*
X117612676Y-27711649D01*
X117517438Y-27854507D01*
X117422200Y-27949745D01*
X117326962Y-27997364D01*
G04 #@! TD*
M02*
