G04 #@! TF.GenerationSoftware,KiCad,Pcbnew,(5.0.0)*
G04 #@! TF.CreationDate,2019-08-26T00:43:06-04:00*
G04 #@! TF.ProjectId,discipad-bottom-pcb,64697363697061642D626F74746F6D2D,rev?*
G04 #@! TF.SameCoordinates,Original*
G04 #@! TF.FileFunction,Copper,L1,Top,Signal*
G04 #@! TF.FilePolarity,Positive*
%FSLAX46Y46*%
G04 Gerber Fmt 4.6, Leading zero omitted, Abs format (unit mm)*
G04 Created by KiCad (PCBNEW (5.0.0)) date 08/26/19 00:43:06*
%MOMM*%
%LPD*%
G01*
G04 APERTURE LIST*
G04 #@! TA.AperFunction,ComponentPad*
%ADD10C,8.600000*%
G04 #@! TD*
G04 #@! TA.AperFunction,ComponentPad*
%ADD11C,4.400000*%
G04 #@! TD*
G04 #@! TA.AperFunction,Conductor*
%ADD12C,0.254000*%
G04 #@! TD*
G04 APERTURE END LIST*
D10*
G04 #@! TO.P,REF\002A\002A,1*
G04 #@! TO.N,N/C*
X123158765Y-53561440D03*
G04 #@! TD*
D11*
G04 #@! TO.P,H1,1*
G04 #@! TO.N,GND*
X143833559Y-118686673D03*
G04 #@! TD*
G04 #@! TO.P,REF\002A\002A,1*
G04 #@! TO.N,N/C*
X115752543Y-99566685D03*
G04 #@! TD*
G04 #@! TO.P,REF\002A\002A,1*
G04 #@! TO.N,N/C*
X171914575Y-99841686D03*
G04 #@! TD*
G04 #@! TO.P,REF\002A\002A,1*
G04 #@! TO.N,N/C*
X143833559Y-61784261D03*
G04 #@! TD*
G04 #@! TO.P,REF\002A\002A,1*
G04 #@! TO.N,N/C*
X179001130Y-28475773D03*
G04 #@! TD*
G04 #@! TO.P,REF\002A\002A,1*
G04 #@! TO.N,N/C*
X108503031Y-28475773D03*
G04 #@! TD*
D10*
G04 #@! TO.P,REF\002A\002A,1*
G04 #@! TO.N,N/C*
X164508353Y-53561440D03*
G04 #@! TD*
D12*
G04 #@! TO.N,GND*
G36*
X179246370Y-15876402D02*
X179777191Y-16055042D01*
X180257268Y-16343501D01*
X180664202Y-16728320D01*
X180979008Y-17191544D01*
X181187003Y-17711566D01*
X181283169Y-18292458D01*
X181286697Y-18418769D01*
X181286697Y-26752044D01*
X180607029Y-26072376D01*
X179565047Y-25640773D01*
X178437213Y-25640773D01*
X177395231Y-26072376D01*
X176597733Y-26869874D01*
X176166130Y-27911856D01*
X176166130Y-29039690D01*
X176597733Y-30081672D01*
X177395231Y-30879170D01*
X178437213Y-31310773D01*
X179565047Y-31310773D01*
X180607029Y-30879170D01*
X181286697Y-30199502D01*
X181286698Y-134556155D01*
X181222032Y-135151410D01*
X181043391Y-135682232D01*
X180754933Y-136162308D01*
X180370114Y-136569242D01*
X179906892Y-136884048D01*
X179386868Y-137092043D01*
X178805976Y-137188209D01*
X178679665Y-137191737D01*
X109015994Y-137191737D01*
X108420748Y-137127072D01*
X107889926Y-136948431D01*
X107409850Y-136659973D01*
X107002916Y-136275154D01*
X106688110Y-135811932D01*
X106480115Y-135291908D01*
X106383949Y-134711016D01*
X106380421Y-134584705D01*
X106380421Y-120706055D01*
X141993782Y-120706055D01*
X142238927Y-121097561D01*
X143282919Y-121524282D01*
X144410740Y-121519003D01*
X145428191Y-121097561D01*
X145673336Y-120706055D01*
X143833559Y-118866278D01*
X141993782Y-120706055D01*
X106380421Y-120706055D01*
X106380421Y-118136033D01*
X140995950Y-118136033D01*
X141001229Y-119263854D01*
X141422671Y-120281305D01*
X141814177Y-120526450D01*
X143653954Y-118686673D01*
X144013164Y-118686673D01*
X145852941Y-120526450D01*
X146244447Y-120281305D01*
X146671168Y-119237313D01*
X146665889Y-118109492D01*
X146244447Y-117092041D01*
X145852941Y-116846896D01*
X144013164Y-118686673D01*
X143653954Y-118686673D01*
X141814177Y-116846896D01*
X141422671Y-117092041D01*
X140995950Y-118136033D01*
X106380421Y-118136033D01*
X106380421Y-116667291D01*
X141993782Y-116667291D01*
X143833559Y-118507068D01*
X145673336Y-116667291D01*
X145428191Y-116275785D01*
X144384199Y-115849064D01*
X143256378Y-115854343D01*
X142238927Y-116275785D01*
X141993782Y-116667291D01*
X106380421Y-116667291D01*
X106380421Y-99002768D01*
X112917543Y-99002768D01*
X112917543Y-100130602D01*
X113349146Y-101172584D01*
X114146644Y-101970082D01*
X115188626Y-102401685D01*
X116316460Y-102401685D01*
X117358442Y-101970082D01*
X118155940Y-101172584D01*
X118587543Y-100130602D01*
X118587543Y-99277769D01*
X169079575Y-99277769D01*
X169079575Y-100405603D01*
X169511178Y-101447585D01*
X170308676Y-102245083D01*
X171350658Y-102676686D01*
X172478492Y-102676686D01*
X173520474Y-102245083D01*
X174317972Y-101447585D01*
X174749575Y-100405603D01*
X174749575Y-99277769D01*
X174317972Y-98235787D01*
X173520474Y-97438289D01*
X172478492Y-97006686D01*
X171350658Y-97006686D01*
X170308676Y-97438289D01*
X169511178Y-98235787D01*
X169079575Y-99277769D01*
X118587543Y-99277769D01*
X118587543Y-99002768D01*
X118155940Y-97960786D01*
X117358442Y-97163288D01*
X116316460Y-96731685D01*
X115188626Y-96731685D01*
X114146644Y-97163288D01*
X113349146Y-97960786D01*
X112917543Y-99002768D01*
X106380421Y-99002768D01*
X106380421Y-61220344D01*
X140998559Y-61220344D01*
X140998559Y-62348178D01*
X141430162Y-63390160D01*
X142227660Y-64187658D01*
X143269642Y-64619261D01*
X144397476Y-64619261D01*
X145439458Y-64187658D01*
X146236956Y-63390160D01*
X146668559Y-62348178D01*
X146668559Y-61220344D01*
X146236956Y-60178362D01*
X145439458Y-59380864D01*
X144397476Y-58949261D01*
X143269642Y-58949261D01*
X142227660Y-59380864D01*
X141430162Y-60178362D01*
X140998559Y-61220344D01*
X106380421Y-61220344D01*
X106380421Y-52579808D01*
X118223765Y-52579808D01*
X118223765Y-54543072D01*
X118975074Y-56356893D01*
X120363312Y-57745131D01*
X122177133Y-58496440D01*
X124140397Y-58496440D01*
X125954218Y-57745131D01*
X127342456Y-56356893D01*
X128093765Y-54543072D01*
X128093765Y-52579808D01*
X159573353Y-52579808D01*
X159573353Y-54543072D01*
X160324662Y-56356893D01*
X161712900Y-57745131D01*
X163526721Y-58496440D01*
X165489985Y-58496440D01*
X167303806Y-57745131D01*
X168692044Y-56356893D01*
X169443353Y-54543072D01*
X169443353Y-52579808D01*
X168692044Y-50765987D01*
X167303806Y-49377749D01*
X165489985Y-48626440D01*
X163526721Y-48626440D01*
X161712900Y-49377749D01*
X160324662Y-50765987D01*
X159573353Y-52579808D01*
X128093765Y-52579808D01*
X127342456Y-50765987D01*
X125954218Y-49377749D01*
X124140397Y-48626440D01*
X122177133Y-48626440D01*
X120363312Y-49377749D01*
X118975074Y-50765987D01*
X118223765Y-52579808D01*
X106380421Y-52579808D01*
X106380421Y-30362459D01*
X106897132Y-30879170D01*
X107939114Y-31310773D01*
X109066948Y-31310773D01*
X110108930Y-30879170D01*
X110906428Y-30081672D01*
X111338031Y-29039690D01*
X111338031Y-27911856D01*
X110906428Y-26869874D01*
X110108930Y-26072376D01*
X109066948Y-25640773D01*
X107939114Y-25640773D01*
X106897132Y-26072376D01*
X106380421Y-26589087D01*
X106380421Y-18447310D01*
X106445086Y-17852064D01*
X106623726Y-17321243D01*
X106912185Y-16841166D01*
X107297004Y-16434232D01*
X107760228Y-16119426D01*
X108280250Y-15911431D01*
X108861142Y-15815265D01*
X108987453Y-15811737D01*
X178651124Y-15811737D01*
X179246370Y-15876402D01*
X179246370Y-15876402D01*
G37*
X179246370Y-15876402D02*
X179777191Y-16055042D01*
X180257268Y-16343501D01*
X180664202Y-16728320D01*
X180979008Y-17191544D01*
X181187003Y-17711566D01*
X181283169Y-18292458D01*
X181286697Y-18418769D01*
X181286697Y-26752044D01*
X180607029Y-26072376D01*
X179565047Y-25640773D01*
X178437213Y-25640773D01*
X177395231Y-26072376D01*
X176597733Y-26869874D01*
X176166130Y-27911856D01*
X176166130Y-29039690D01*
X176597733Y-30081672D01*
X177395231Y-30879170D01*
X178437213Y-31310773D01*
X179565047Y-31310773D01*
X180607029Y-30879170D01*
X181286697Y-30199502D01*
X181286698Y-134556155D01*
X181222032Y-135151410D01*
X181043391Y-135682232D01*
X180754933Y-136162308D01*
X180370114Y-136569242D01*
X179906892Y-136884048D01*
X179386868Y-137092043D01*
X178805976Y-137188209D01*
X178679665Y-137191737D01*
X109015994Y-137191737D01*
X108420748Y-137127072D01*
X107889926Y-136948431D01*
X107409850Y-136659973D01*
X107002916Y-136275154D01*
X106688110Y-135811932D01*
X106480115Y-135291908D01*
X106383949Y-134711016D01*
X106380421Y-134584705D01*
X106380421Y-120706055D01*
X141993782Y-120706055D01*
X142238927Y-121097561D01*
X143282919Y-121524282D01*
X144410740Y-121519003D01*
X145428191Y-121097561D01*
X145673336Y-120706055D01*
X143833559Y-118866278D01*
X141993782Y-120706055D01*
X106380421Y-120706055D01*
X106380421Y-118136033D01*
X140995950Y-118136033D01*
X141001229Y-119263854D01*
X141422671Y-120281305D01*
X141814177Y-120526450D01*
X143653954Y-118686673D01*
X144013164Y-118686673D01*
X145852941Y-120526450D01*
X146244447Y-120281305D01*
X146671168Y-119237313D01*
X146665889Y-118109492D01*
X146244447Y-117092041D01*
X145852941Y-116846896D01*
X144013164Y-118686673D01*
X143653954Y-118686673D01*
X141814177Y-116846896D01*
X141422671Y-117092041D01*
X140995950Y-118136033D01*
X106380421Y-118136033D01*
X106380421Y-116667291D01*
X141993782Y-116667291D01*
X143833559Y-118507068D01*
X145673336Y-116667291D01*
X145428191Y-116275785D01*
X144384199Y-115849064D01*
X143256378Y-115854343D01*
X142238927Y-116275785D01*
X141993782Y-116667291D01*
X106380421Y-116667291D01*
X106380421Y-99002768D01*
X112917543Y-99002768D01*
X112917543Y-100130602D01*
X113349146Y-101172584D01*
X114146644Y-101970082D01*
X115188626Y-102401685D01*
X116316460Y-102401685D01*
X117358442Y-101970082D01*
X118155940Y-101172584D01*
X118587543Y-100130602D01*
X118587543Y-99277769D01*
X169079575Y-99277769D01*
X169079575Y-100405603D01*
X169511178Y-101447585D01*
X170308676Y-102245083D01*
X171350658Y-102676686D01*
X172478492Y-102676686D01*
X173520474Y-102245083D01*
X174317972Y-101447585D01*
X174749575Y-100405603D01*
X174749575Y-99277769D01*
X174317972Y-98235787D01*
X173520474Y-97438289D01*
X172478492Y-97006686D01*
X171350658Y-97006686D01*
X170308676Y-97438289D01*
X169511178Y-98235787D01*
X169079575Y-99277769D01*
X118587543Y-99277769D01*
X118587543Y-99002768D01*
X118155940Y-97960786D01*
X117358442Y-97163288D01*
X116316460Y-96731685D01*
X115188626Y-96731685D01*
X114146644Y-97163288D01*
X113349146Y-97960786D01*
X112917543Y-99002768D01*
X106380421Y-99002768D01*
X106380421Y-61220344D01*
X140998559Y-61220344D01*
X140998559Y-62348178D01*
X141430162Y-63390160D01*
X142227660Y-64187658D01*
X143269642Y-64619261D01*
X144397476Y-64619261D01*
X145439458Y-64187658D01*
X146236956Y-63390160D01*
X146668559Y-62348178D01*
X146668559Y-61220344D01*
X146236956Y-60178362D01*
X145439458Y-59380864D01*
X144397476Y-58949261D01*
X143269642Y-58949261D01*
X142227660Y-59380864D01*
X141430162Y-60178362D01*
X140998559Y-61220344D01*
X106380421Y-61220344D01*
X106380421Y-52579808D01*
X118223765Y-52579808D01*
X118223765Y-54543072D01*
X118975074Y-56356893D01*
X120363312Y-57745131D01*
X122177133Y-58496440D01*
X124140397Y-58496440D01*
X125954218Y-57745131D01*
X127342456Y-56356893D01*
X128093765Y-54543072D01*
X128093765Y-52579808D01*
X159573353Y-52579808D01*
X159573353Y-54543072D01*
X160324662Y-56356893D01*
X161712900Y-57745131D01*
X163526721Y-58496440D01*
X165489985Y-58496440D01*
X167303806Y-57745131D01*
X168692044Y-56356893D01*
X169443353Y-54543072D01*
X169443353Y-52579808D01*
X168692044Y-50765987D01*
X167303806Y-49377749D01*
X165489985Y-48626440D01*
X163526721Y-48626440D01*
X161712900Y-49377749D01*
X160324662Y-50765987D01*
X159573353Y-52579808D01*
X128093765Y-52579808D01*
X127342456Y-50765987D01*
X125954218Y-49377749D01*
X124140397Y-48626440D01*
X122177133Y-48626440D01*
X120363312Y-49377749D01*
X118975074Y-50765987D01*
X118223765Y-52579808D01*
X106380421Y-52579808D01*
X106380421Y-30362459D01*
X106897132Y-30879170D01*
X107939114Y-31310773D01*
X109066948Y-31310773D01*
X110108930Y-30879170D01*
X110906428Y-30081672D01*
X111338031Y-29039690D01*
X111338031Y-27911856D01*
X110906428Y-26869874D01*
X110108930Y-26072376D01*
X109066948Y-25640773D01*
X107939114Y-25640773D01*
X106897132Y-26072376D01*
X106380421Y-26589087D01*
X106380421Y-18447310D01*
X106445086Y-17852064D01*
X106623726Y-17321243D01*
X106912185Y-16841166D01*
X107297004Y-16434232D01*
X107760228Y-16119426D01*
X108280250Y-15911431D01*
X108861142Y-15815265D01*
X108987453Y-15811737D01*
X178651124Y-15811737D01*
X179246370Y-15876402D01*
G04 #@! TD*
M02*
