G04 #@! TF.GenerationSoftware,KiCad,Pcbnew,(5.0.0)*
G04 #@! TF.CreationDate,2019-08-26T00:43:06-04:00*
G04 #@! TF.ProjectId,discipad-bottom-pcb,64697363697061642D626F74746F6D2D,rev?*
G04 #@! TF.SameCoordinates,Original*
G04 #@! TF.FileFunction,Soldermask,Top*
G04 #@! TF.FilePolarity,Negative*
%FSLAX46Y46*%
G04 Gerber Fmt 4.6, Leading zero omitted, Abs format (unit mm)*
G04 Created by KiCad (PCBNEW (5.0.0)) date 08/26/19 00:43:06*
%MOMM*%
%LPD*%
G01*
G04 APERTURE LIST*
%ADD10C,0.100000*%
G04 APERTURE END LIST*
D10*
G36*
X144142004Y-116452927D02*
X144490152Y-116522177D01*
X144899808Y-116691862D01*
X145268488Y-116938207D01*
X145582025Y-117251744D01*
X145828370Y-117620424D01*
X145998055Y-118030080D01*
X146084559Y-118464969D01*
X146084559Y-118908377D01*
X145998055Y-119343266D01*
X145828370Y-119752922D01*
X145582025Y-120121602D01*
X145268488Y-120435139D01*
X144899808Y-120681484D01*
X144490152Y-120851169D01*
X144142004Y-120920419D01*
X144055265Y-120937673D01*
X143611853Y-120937673D01*
X143525114Y-120920419D01*
X143176966Y-120851169D01*
X142767310Y-120681484D01*
X142398630Y-120435139D01*
X142085093Y-120121602D01*
X141838748Y-119752922D01*
X141669063Y-119343266D01*
X141582559Y-118908377D01*
X141582559Y-118464969D01*
X141669063Y-118030080D01*
X141838748Y-117620424D01*
X142085093Y-117251744D01*
X142398630Y-116938207D01*
X142767310Y-116691862D01*
X143176966Y-116522177D01*
X143525114Y-116452927D01*
X143611853Y-116435673D01*
X144055265Y-116435673D01*
X144142004Y-116452927D01*
X144142004Y-116452927D01*
G37*
G36*
X172223020Y-97607940D02*
X172571168Y-97677190D01*
X172980824Y-97846875D01*
X173349504Y-98093220D01*
X173663041Y-98406757D01*
X173909386Y-98775437D01*
X174079071Y-99185093D01*
X174165575Y-99619982D01*
X174165575Y-100063390D01*
X174079071Y-100498279D01*
X173909386Y-100907935D01*
X173663041Y-101276615D01*
X173349504Y-101590152D01*
X172980824Y-101836497D01*
X172571168Y-102006182D01*
X172223020Y-102075432D01*
X172136281Y-102092686D01*
X171692869Y-102092686D01*
X171606130Y-102075432D01*
X171257982Y-102006182D01*
X170848326Y-101836497D01*
X170479646Y-101590152D01*
X170166109Y-101276615D01*
X169919764Y-100907935D01*
X169750079Y-100498279D01*
X169663575Y-100063390D01*
X169663575Y-99619982D01*
X169750079Y-99185093D01*
X169919764Y-98775437D01*
X170166109Y-98406757D01*
X170479646Y-98093220D01*
X170848326Y-97846875D01*
X171257982Y-97677190D01*
X171606130Y-97607940D01*
X171692869Y-97590686D01*
X172136281Y-97590686D01*
X172223020Y-97607940D01*
X172223020Y-97607940D01*
G37*
G36*
X116060988Y-97332939D02*
X116409136Y-97402189D01*
X116818792Y-97571874D01*
X117187472Y-97818219D01*
X117501009Y-98131756D01*
X117747354Y-98500436D01*
X117917039Y-98910092D01*
X118003543Y-99344981D01*
X118003543Y-99788389D01*
X117917039Y-100223278D01*
X117747354Y-100632934D01*
X117501009Y-101001614D01*
X117187472Y-101315151D01*
X116818792Y-101561496D01*
X116409136Y-101731181D01*
X116060988Y-101800431D01*
X115974249Y-101817685D01*
X115530837Y-101817685D01*
X115444098Y-101800431D01*
X115095950Y-101731181D01*
X114686294Y-101561496D01*
X114317614Y-101315151D01*
X114004077Y-101001614D01*
X113757732Y-100632934D01*
X113588047Y-100223278D01*
X113501543Y-99788389D01*
X113501543Y-99344981D01*
X113588047Y-98910092D01*
X113757732Y-98500436D01*
X114004077Y-98131756D01*
X114317614Y-97818219D01*
X114686294Y-97571874D01*
X115095950Y-97402189D01*
X115444098Y-97332939D01*
X115530837Y-97315685D01*
X115974249Y-97315685D01*
X116060988Y-97332939D01*
X116060988Y-97332939D01*
G37*
G36*
X144142004Y-59550515D02*
X144490152Y-59619765D01*
X144899808Y-59789450D01*
X145268488Y-60035795D01*
X145582025Y-60349332D01*
X145828370Y-60718012D01*
X145998055Y-61127668D01*
X146084559Y-61562557D01*
X146084559Y-62005965D01*
X145998055Y-62440854D01*
X145828370Y-62850510D01*
X145582025Y-63219190D01*
X145268488Y-63532727D01*
X144899808Y-63779072D01*
X144490152Y-63948757D01*
X144142004Y-64018007D01*
X144055265Y-64035261D01*
X143611853Y-64035261D01*
X143525114Y-64018007D01*
X143176966Y-63948757D01*
X142767310Y-63779072D01*
X142398630Y-63532727D01*
X142085093Y-63219190D01*
X141838748Y-62850510D01*
X141669063Y-62440854D01*
X141582559Y-62005965D01*
X141582559Y-61562557D01*
X141669063Y-61127668D01*
X141838748Y-60718012D01*
X142085093Y-60349332D01*
X142398630Y-60035795D01*
X142767310Y-59789450D01*
X143176966Y-59619765D01*
X143525114Y-59550515D01*
X143611853Y-59533261D01*
X144055265Y-59533261D01*
X144142004Y-59550515D01*
X144142004Y-59550515D01*
G37*
G36*
X165056509Y-49234234D02*
X165777493Y-49377646D01*
X166569325Y-49705633D01*
X167281954Y-50181797D01*
X167887996Y-50787839D01*
X168364160Y-51500468D01*
X168692147Y-52292300D01*
X168859353Y-53132904D01*
X168859353Y-53989976D01*
X168692147Y-54830580D01*
X168364160Y-55622412D01*
X167887996Y-56335041D01*
X167281954Y-56941083D01*
X166569325Y-57417247D01*
X165777493Y-57745234D01*
X165056509Y-57888646D01*
X164936890Y-57912440D01*
X164079816Y-57912440D01*
X163960197Y-57888646D01*
X163239213Y-57745234D01*
X162447381Y-57417247D01*
X161734752Y-56941083D01*
X161128710Y-56335041D01*
X160652546Y-55622412D01*
X160324559Y-54830580D01*
X160157353Y-53989976D01*
X160157353Y-53132904D01*
X160324559Y-52292300D01*
X160652546Y-51500468D01*
X161128710Y-50787839D01*
X161734752Y-50181797D01*
X162447381Y-49705633D01*
X163239213Y-49377646D01*
X163960197Y-49234234D01*
X164079816Y-49210440D01*
X164936890Y-49210440D01*
X165056509Y-49234234D01*
X165056509Y-49234234D01*
G37*
G36*
X123706921Y-49234234D02*
X124427905Y-49377646D01*
X125219737Y-49705633D01*
X125932366Y-50181797D01*
X126538408Y-50787839D01*
X127014572Y-51500468D01*
X127342559Y-52292300D01*
X127509765Y-53132904D01*
X127509765Y-53989976D01*
X127342559Y-54830580D01*
X127014572Y-55622412D01*
X126538408Y-56335041D01*
X125932366Y-56941083D01*
X125219737Y-57417247D01*
X124427905Y-57745234D01*
X123706921Y-57888646D01*
X123587302Y-57912440D01*
X122730228Y-57912440D01*
X122610609Y-57888646D01*
X121889625Y-57745234D01*
X121097793Y-57417247D01*
X120385164Y-56941083D01*
X119779122Y-56335041D01*
X119302958Y-55622412D01*
X118974971Y-54830580D01*
X118807765Y-53989976D01*
X118807765Y-53132904D01*
X118974971Y-52292300D01*
X119302958Y-51500468D01*
X119779122Y-50787839D01*
X120385164Y-50181797D01*
X121097793Y-49705633D01*
X121889625Y-49377646D01*
X122610609Y-49234234D01*
X122730228Y-49210440D01*
X123587302Y-49210440D01*
X123706921Y-49234234D01*
X123706921Y-49234234D01*
G37*
G36*
X179309575Y-26242027D02*
X179657723Y-26311277D01*
X180067379Y-26480962D01*
X180436059Y-26727307D01*
X180749596Y-27040844D01*
X180995941Y-27409524D01*
X181165626Y-27819180D01*
X181252130Y-28254069D01*
X181252130Y-28697477D01*
X181165626Y-29132366D01*
X180995941Y-29542022D01*
X180749596Y-29910702D01*
X180436059Y-30224239D01*
X180067379Y-30470584D01*
X179657723Y-30640269D01*
X179309575Y-30709519D01*
X179222836Y-30726773D01*
X178779424Y-30726773D01*
X178692685Y-30709519D01*
X178344537Y-30640269D01*
X177934881Y-30470584D01*
X177566201Y-30224239D01*
X177252664Y-29910702D01*
X177006319Y-29542022D01*
X176836634Y-29132366D01*
X176750130Y-28697477D01*
X176750130Y-28254069D01*
X176836634Y-27819180D01*
X177006319Y-27409524D01*
X177252664Y-27040844D01*
X177566201Y-26727307D01*
X177934881Y-26480962D01*
X178344537Y-26311277D01*
X178692685Y-26242027D01*
X178779424Y-26224773D01*
X179222836Y-26224773D01*
X179309575Y-26242027D01*
X179309575Y-26242027D01*
G37*
G36*
X108811476Y-26242027D02*
X109159624Y-26311277D01*
X109569280Y-26480962D01*
X109937960Y-26727307D01*
X110251497Y-27040844D01*
X110497842Y-27409524D01*
X110667527Y-27819180D01*
X110754031Y-28254069D01*
X110754031Y-28697477D01*
X110667527Y-29132366D01*
X110497842Y-29542022D01*
X110251497Y-29910702D01*
X109937960Y-30224239D01*
X109569280Y-30470584D01*
X109159624Y-30640269D01*
X108811476Y-30709519D01*
X108724737Y-30726773D01*
X108281325Y-30726773D01*
X108194586Y-30709519D01*
X107846438Y-30640269D01*
X107436782Y-30470584D01*
X107068102Y-30224239D01*
X106754565Y-29910702D01*
X106508220Y-29542022D01*
X106338535Y-29132366D01*
X106252031Y-28697477D01*
X106252031Y-28254069D01*
X106338535Y-27819180D01*
X106508220Y-27409524D01*
X106754565Y-27040844D01*
X107068102Y-26727307D01*
X107436782Y-26480962D01*
X107846438Y-26311277D01*
X108194586Y-26242027D01*
X108281325Y-26224773D01*
X108724737Y-26224773D01*
X108811476Y-26242027D01*
X108811476Y-26242027D01*
G37*
M02*
